<?xml version="1.0" encoding="utf-8"?>
<!-- Generator: Adobe Illustrator 27.5.0, SVG Export Plug-In . SVG Version: 6.00 Build 0)  -->
<svg version="1.1" id="Layer_1" xmlns="http://www.w3.org/2000/svg" xmlns:xlink="http://www.w3.org/1999/xlink" x="0px" y="0px"
	 width="1084.3px" height="1194.1px" viewBox="0 0 1084.3 1194.1" style="enable-background:new 0 0 1084.3 1194.1;"
	 xml:space="preserve">
<style type="text/css">
	.st0{fill:none;stroke:#000000;stroke-width:2;stroke-miterlimit:10;}
</style>
<g>
	<g>
		<g>
			<path d="M147.6,75.1c-5-1.5-10.1-3.1-15.1-4.6c-2.5-0.8-5-1.7-7.6-2.1c-2.6-0.3-4.8,0.5-6.8,2.1c-1.4,1.1-2.5,2.6-3.8,3.8
				c-0.5,0.5-0.7,0.7-1.3,1c-0.9,0.4-2,0.3-2.9,0.1c-5.1-1-10.2-2.6-15.2-3.9C89,70,83.2,68.4,77.3,66.9c-2-0.5-3.7,1-3.8,2.9
				c-1.3,18.3-2.2,36.6-2.5,55s-0.1,36.9,0.6,55.3c0.4,10.3,1,20.6,1.7,30.9c0.1,1.6,1.3,3,3,3c1.5,0,3.1-1.4,3-3
				c-1.3-18.3-2-36.6-2.3-55s0-36.9,0.8-55.3c0.4-10.3,1-20.6,1.8-30.9c-1.3,1-2.5,1.9-3.8,2.9c10.4,2.7,20.7,5.4,31.1,8.1
				c2.5,0.6,5.1,1.2,7.6,0.4c2-0.6,3.7-2,5.1-3.5c0.6-0.6,1.1-1.2,1.8-1.8c0.3-0.3,0.6-0.6,1-0.9c-0.3,0.2,0.8-0.5,0.6-0.4
				c1.5-0.6,4.2,0.6,5.9,1.1c5.7,1.8,11.5,3.5,17.2,5.3C149.7,82,151.3,76.2,147.6,75.1L147.6,75.1z"/>
		</g>
	</g>
	<g>
		<g>
			<path d="M145.9,74.6c0,19.6,0.1,39.2,0.1,58.9c0,9.8,0,19.6,0.1,29.4c0,9.5,0.2,19-0.1,28.6c-0.3,9.8-1.3,19.7-4.9,28.9
				c1.5-0.6,2.9-1.2,4.4-1.8c-13.7-8.1-29.1-13.3-45-14.8c-4.4-0.4-8.7-0.6-13.1-0.4c-3.9,0.1-3.9,6.1,0,6
				c14.8-0.4,29.7,2.4,43.2,8.4c4.1,1.8,8,3.8,11.8,6.1c1.8,1.1,3.7,0,4.4-1.8c3.3-8.4,4.5-17.5,5-26.4c0.5-9.4,0.3-18.8,0.3-28.2
				c0-19.8-0.1-39.6-0.1-59.4c0-11.1,0-22.3-0.1-33.4C151.9,70.7,145.9,70.7,145.9,74.6L145.9,74.6z"/>
		</g>
	</g>
	<g>
		<g>
			<path d="M94.2,144.5c16.9-3.2,34.4-3.5,51.3-0.8c4.9,0.8,9.7,1.8,14.5,3.1c3.7,1,5.3-4.8,1.6-5.8c-17.4-4.6-35.6-6.2-53.6-4.5
				c-5.2,0.5-10.3,1.2-15.4,2.2c-1.6,0.3-2.5,2.2-2.1,3.7C90.9,144,92.6,144.8,94.2,144.5L94.2,144.5z"/>
		</g>
	</g>
</g>
<g>
	<g>
		<path d="M231.2,171.8c7.7-17.6,18.2-42,41-41.5c11.5,0.2,22,5.9,31.2,12.3c9.7,6.7,18.6,14.6,28.7,20.8
			c17.2,10.5,37.7,13.6,57.2,8.3c9.6-2.6,18.6-7.1,26.4-13.1c1.9-1.4,3.7-2.9,5.5-4.5c0.9-0.9,1.9-1.8,2.8-2.7
			c0.5-0.5,0.9-0.9,1.4-1.4c0.3-0.3,0.6-0.6,0.9-1c-0.5,0.2-0.5,0.2,0.2,0c4.1-1,8.1-0.5,11.9,1.4c10.4,5.3,16,16.5,18.2,27.4
			c2.7,13.5,1.2,27.6-0.2,41.1c-0.2,1.6,1.5,3,3,3c35.9,1.1,71.7,2.2,107.6,3.2c1,0,2.1-0.6,2.6-1.5c8.2-16.5,10.2-35,16.6-52.1
			c4.7-12.5,13.6-28.4,28.9-28.2c7.2,0.1,13.3,4,16.3,10.6c0.8,1.7,3.6,2,4.7,0.6c5.1-6.2,10.3-12.5,15.4-18.7
			c2.4-3-1.8-7.2-4.2-4.2c-5.1,6.2-10.3,12.5-15.4,18.7c1.6,0.2,3.1,0.4,4.7,0.6c-6.4-13.9-24.5-17.3-36.7-9.1
			c-15.3,10.2-20.8,30-25.1,46.8c-2.8,10.9-5.4,22-10.4,32.1c0.9-0.5,1.7-1,2.6-1.5c-35.9-1.1-71.7-2.2-107.6-3.2c1,1,2,2,3,3
			c2.4-22.7,5-50.9-13.3-68.2c-3.5-3.3-7.8-6.1-12.5-7.4c-2.1-0.6-4.4-0.9-6.6-0.9c-2.3,0.1-5.6,0.3-7.5,1.9s-3.6,3.8-5.5,5.5
			c-2,1.8-4.1,3.5-6.3,5.1c-4.2,3-8.7,5.6-13.4,7.7c-18.4,8.1-40,7.7-57.7-1.8c-21.2-11.3-37.6-32.7-62.6-36
			c-12.6-1.7-24.3,3-32.7,12.4c-8.2,9.1-13.3,20.6-18.2,31.7c-0.7,1.5-0.4,3.2,1.1,4.1C228.3,173.6,230.5,173.2,231.2,171.8
			L231.2,171.8z"/>
	</g>
</g>
<g>
	<g>
		<path d="M639.7,216c3.9,0,3.9-6,0-6C635.9,210,635.9,216,639.7,216L639.7,216z"/>
	</g>
</g>
<g>
	<g>
		<path d="M612.8,218.2c3.9,0,3.9-6,0-6S608.9,218.2,612.8,218.2L612.8,218.2z"/>
	</g>
</g>
<g>
	<g>
		<path d="M587.8,218.2c3.9,0,3.9-6,0-6S583.9,218.2,587.8,218.2L587.8,218.2z"/>
	</g>
</g>
<g>
	<g>
		<path d="M443.5,220.5c3.9,0,3.9-6,0-6S439.6,220.5,443.5,220.5L443.5,220.5z"/>
	</g>
</g>
<g>
	<g>
		<path d="M403,225.1c3.9,0,3.9-6,0-6C399.2,219.1,399.2,225.1,403,225.1L403,225.1z"/>
	</g>
</g>
<g>
	<g>
		<path d="M349.2,222.8c3.9,0,3.9-6,0-6S345.3,222.8,349.2,222.8L349.2,222.8z"/>
	</g>
</g>
<g>
	<g>
		<path d="M268.3,211.4c3.9,0,3.9-6,0-6C264.5,205.4,264.5,211.4,268.3,211.4L268.3,211.4z"/>
	</g>
</g>
<g>
	<g>
		<path d="M187.5,211.4c3.9,0,3.9-6,0-6S183.6,211.4,187.5,211.4L187.5,211.4z"/>
	</g>
</g>
<g>
	<g>
		<path d="M789.9,108.1c-13.8,0-27.3-2.5-40.3-7.1c-1.7-0.6-4,1-3.8,2.9c1.1,12.2,2.2,24.4,3.3,36.6c0.2,2.6,3.1,4,5.1,2.1
			c3.9-3.6,8.6-6.4,13.8-7.7c2.3-0.6,4.8-1,7.2-0.8c0.3,0,0.4,0,1,0.2c0.3,0.1,0.5,0.1,0.8,0.2c0.6,0.2,0.3,0.1,0.2,0
			c0.3,0.1,0.6,0.3,0.8,0.5c0,0,0.4,0.3,0.1,0.1c0.4,0.3,0.6,0.6,0.7,0.8c1,2.2-0.2,5.5-0.7,7.7c-0.6,2.8-1.3,5.5-2.3,8.1
			c-1.7,5-4.2,9.9-7.9,13.7c-3.6,3.7-8.8,6.5-13.8,5.8c-1.6-0.2-3.2,0.4-3.7,2.1c-0.4,1.4,0.5,3.4,2.1,3.7c6.5,1,12.5-1.3,17.6-5.4
			c5.1-4.2,8.4-10.2,10.8-16.2c1.2-3.1,2.1-6.3,2.8-9.5c0.8-3.4,1.8-7.2,1-10.7c-1.6-7-9.4-7.5-15.2-6.7c-7.4,1.1-14.2,4.8-19.6,9.9
			c1.7,0.7,3.4,1.4,5.1,2.1c-1.1-12.2-2.2-24.4-3.3-36.6c-1.3,1-2.5,1.9-3.8,2.9c13.4,4.9,27.6,7.4,41.9,7.4
			C793.7,114.1,793.7,108.1,789.9,108.1L789.9,108.1z"/>
	</g>
</g>
<g>
	<g>
		<path d="M821.3,106.3c1,15.2,0.6,30.4-1.3,45.5c-0.2,1.6,1.5,3,3,3c1.8,0,2.8-1.4,3-3c1.9-15.1,2.3-30.3,1.3-45.5
			c-0.1-1.6-1.3-3-3-3C822.8,103.3,821.2,104.7,821.3,106.3L821.3,106.3z"/>
	</g>
</g>
<g>
	<g>
		<path d="M823.8,130.6c-2,9.2-0.8,19,3.6,27.4c0.8,1.4,2.8,1.9,4.1,1.1c1.5-0.9,1.8-2.7,1.1-4.1c-3.6-6.9-4.6-15.2-3-22.8
			c0.3-1.6-0.5-3.2-2.1-3.7C826,128.1,824.1,129,823.8,130.6L823.8,130.6z"/>
	</g>
</g>
<g>
	<g>
		<path d="M838,114.6c-11.6-0.6-22.8,4.2-31.2,12c-2.8,2.6,1.4,6.9,4.2,4.2c7.3-6.8,16.9-10.7,26.9-10.2c1.6,0.1,3-1.4,3-3
			C841,115.9,839.6,114.7,838,114.6L838,114.6z"/>
	</g>
</g>
<g>
	<g>
		<path d="M859.8,101.8c0.2,18,0.5,36.1,0.7,54.1c0,1.5,1.1,2.8,2.6,2.9c1.6,0.2,2.8-0.7,3.3-2.1c5-13.5,12.5-26.1,22.3-36.6
			c-1.7-0.4-3.3-0.9-5-1.3c2.1,10.2,4.2,20.4,6.3,30.6c0.3,1.4,1.9,2.4,3.3,2.1c1.5-0.2,2.5-1.4,2.6-2.9c1.1-17.8,1.4-35.7,0.8-53.6
			c-0.1-3.9-6.1-3.9-6,0c0.6,17.9,0.3,35.7-0.8,53.6c2-0.3,3.9-0.5,5.9-0.8c-2.1-10.2-4.2-20.4-6.3-30.6c-0.5-2.2-3.5-2.9-5-1.3
			c-10.5,11.3-18.5,24.8-23.8,39.2c2,0.3,3.9,0.5,5.9,0.8c-0.2-18-0.5-36.1-0.7-54.1C865.7,97.9,859.7,97.9,859.8,101.8L859.8,101.8
			z"/>
	</g>
</g>
<g>
	<g>
		<path d="M1024.7,91.7c-1.6-4.7-3.4-9.7-7.3-13.1c-3.4-3-8-4.3-12.5-3.9c-4.7,0.5-9,2.4-12.7,5.5c-3.8,3.2-6.3,7.6-8.1,12.2
			c-1.9,4.5-2.9,9.3-4,14.1c-1.2,5.7-2.4,11.5-2.6,17.4c-0.1,5.8,1.1,11.3,3.2,16.6c2,5.3,3.9,10.5,4.9,16.1
			c1,5.4,1.3,10.9,1.5,16.4s-0.2,11.2,1.1,16.5c1.1,4.5,3.7,8.3,7.6,10.9c3.5,2.3,7.7,3.3,11.8,3.7c4.1,0.5,8.2,0.3,12.2-0.1
			c2.6-0.2,5.4-0.5,7.3-2.5c1.8-2,2.5-4.9,3.4-7.3c4-10.6,7.6-21.5,7.7-33c0.3-21.3-9.8-40.8-12.7-61.7c-0.3-2.5-0.5-4.9-0.6-7.4
			c-0.1-1.6-1.3-3-3-3c-1.6,0-3.1,1.4-3,3c0.8,20,9.7,38.4,12.6,58.1c0.7,4.7,0.9,9.5,0.6,14.2c-0.3,5.1-1.4,10.1-2.9,15
			c-1.5,5.1-3.4,10.1-5.2,15.1c-0.4,0.9-0.6,1.8-1.1,2.5c-0.3,0.5-0.8,0.6-1.6,0.7c-1.9,0.3-3.8,0.4-5.7,0.4
			c-3.8,0.2-7.4,0-10.8-0.7c-3.4-0.8-6.1-2-8.3-4.5c-0.4-0.5-0.8-1-1.2-1.8c-0.5-0.9-0.9-1.9-1.1-2.9c-0.6-2.2-0.7-4.5-0.7-6.8
			c-0.1-5.3-0.2-10.5-0.6-15.8c-0.4-5.4-1.1-10.8-2.5-16c-1.3-5-3.5-9.7-5.1-14.7c-3.2-10-0.8-20.4,1.5-30.4
			c1.8-8,4.6-17.3,11.9-21.7c1.7-1,3.1-1.6,5.1-2c1-0.2,1.2-0.3,2.2-0.3c0.4,0,0.9,0,1.3,0c0.2,0,0.4,0,0.7,0c0.1,0,0.7,0.1,0.4,0
			c1.9,0.3,3.3,0.8,4.8,2c1.4,1.2,2.6,2.9,3.5,4.6c1,1.9,1.7,3.9,2.4,5.9c0.5,1.5,2.1,2.5,3.7,2.1
			C1024.1,95,1025.2,93.3,1024.7,91.7L1024.7,91.7z"/>
	</g>
</g>
<g>
	<g>
		<path d="M1013.4,96c-3-3.9-9-4.7-13.4-3.1c-5.1,1.9-9.5,6.1-12.7,10.4c-3.7,4.9-2,11,2.2,14.9c3.6,3.4,8.3,4.9,13.2,5.3
			c5.4,0.5,10.9-0.4,16.2-1.5c1.6-0.3,2.5-2.2,2.1-3.7c-2-7.2-2.8-14.5-2.5-21.9c0.1-1.6-1.4-3-3-3c-1.7,0-2.9,1.4-3,3
			c-0.4,7.9,0.6,15.9,2.7,23.5c0.7-1.2,1.4-2.5,2.1-3.7c-3.8,0.8-7.3,1.3-11.2,1.4c-1.8,0-3.7-0.1-5.2-0.4c-1.9-0.4-3.4-0.8-4.9-1.7
			c-2.3-1.3-5.9-4.5-4.6-7.6c0.7-1.7,2.5-3.1,3.7-4.4c1.4-1.5,2.9-2.9,4.7-3.9c1.8-1.1,3.5-1.6,5.3-1.5c1.6,0.1,2.9,0.6,4.1,2.1
			c1,1.3,3.2,1,4.2,0C1014.6,99,1014.4,97.3,1013.4,96L1013.4,96z"/>
	</g>
</g>
<g>
	<g>
		<path d="M1077.5,91.8c-9.1,0-18.1,0-27.2,0.1c-1.6,0-3.1,1.4-3,3c0.2,5.2,0.5,10.3,0.7,15.5c0.1,2.5,0.2,5,0.3,7.5
			c0.1,2.5-0.2,5.8,2.6,7c1.2,0.5,2.4,0.3,3.6,0.2c1.3-0.1,2.6-0.3,4-0.4c2.5-0.3,5-0.5,7.4-0.8c5.1-0.5,10.3-1.1,15.4-1.6
			c2-0.2,3.4-1.7,2.9-3.8c-1.9-8.1-2.7-16.4-2.5-24.8c0.1-3.9-5.9-3.9-6,0c-0.2,8.9,0.7,17.7,2.7,26.4c1-1.3,1.9-2.5,2.9-3.8
			c-4.9,0.5-9.8,1-14.6,1.5c-2.4,0.3-4.8,0.5-7.2,0.8c-1.2,0.1-2.3,0.2-3.5,0.4c-0.7,0.1-1.3,0.1-2,0.2c-0.3,0-0.7,0.1-1,0.1
			c-0.5,0-0.4,0.1,0.3,0.2c0.4,0.4,0.7,0.7,1.1,1.1c0,0.1,0,0.3,0.1,0.4c0-0.3,0-0.7,0-1c0-0.5,0-1-0.1-1.5
			c-0.1-1.2-0.1-2.3-0.2-3.5c-0.1-2.2-0.2-4.3-0.3-6.5c-0.2-4.5-0.4-9-0.6-13.5c-1,1-2,2-3,3c9.1,0,18.1,0,27.2-0.1
			C1081.3,97.8,1081.3,91.8,1077.5,91.8L1077.5,91.8z"/>
	</g>
</g>
<g>
	<g>
		<path d="M1081.7,92.4c-0.5-9.7-3.5-19.3-9-27.3c-2.5-3.6-7.3-8-12-5.4c-2.3,1.3-3.1,3.8-3.9,6.2c-0.9,2.6-1.7,5.1-2.6,7.7
			c-2,5.8-4,11.7-5.9,17.5c-0.5,1.5,0.6,3.3,2.1,3.7c1.6,0.5,3.2-0.6,3.7-2.1c3-8.9,6-17.9,9.1-26.8c0.1-0.4,0.2-0.5,0.3-0.8
			c0.2-0.4,0.1-0.3,0-0.2c0,0.1,0.3-0.2,0.1-0.1c-0.2,0.1,0.1,0,0.2,0c-0.5-0.2,0.7,0.2,0.4,0.1c1.5,0.6,2.6,2,3.4,3.2
			c2.2,3.3,4,6.9,5.3,10.6c1.5,4.4,2.4,8.9,2.7,13.5c0.1,1.6,1.3,3,3,3C1080.3,95.4,1081.8,94,1081.7,92.4L1081.7,92.4z"/>
	</g>
</g>
<g>
	<g>
		<path d="M147.6,338.4c-5-1.5-10.1-3.1-15.1-4.6c-2.5-0.8-5-1.7-7.6-2.1c-2.6-0.3-4.8,0.5-6.8,2.1c-1.4,1.1-2.5,2.6-3.8,3.8
			c-0.5,0.5-0.7,0.7-1.3,1c-0.9,0.4-2,0.3-2.9,0.1c-5.1-1-10.2-2.6-15.2-3.9c-5.9-1.5-11.7-3.1-17.6-4.6c-2-0.5-3.7,1-3.8,2.9
			c-1.3,18.3-2.2,36.6-2.5,55s-0.1,36.9,0.6,55.3c0.4,10.3,1,20.6,1.7,30.9c0.1,1.6,1.3,3,3,3c1.5,0,3.1-1.4,3-3
			c-1.3-18.3-2-36.6-2.3-55s0-36.9,0.8-55.3c0.4-10.3,1-20.6,1.8-30.9c-1.3,1-2.5,1.9-3.8,2.9c10.4,2.7,20.7,5.4,31.1,8.1
			c2.5,0.6,5.1,1.2,7.6,0.4c2-0.6,3.7-2,5.1-3.5c0.6-0.6,1.1-1.2,1.8-1.8c0.3-0.3,0.6-0.6,1-0.9c-0.3,0.2,0.8-0.5,0.6-0.4
			c1.5-0.6,4.2,0.6,5.9,1.1c5.7,1.8,11.5,3.5,17.2,5.3C149.7,345.3,151.3,339.5,147.6,338.4L147.6,338.4z"/>
	</g>
</g>
<g>
	<g>
		<path d="M145.9,337.8c0,19.6,0.1,39.2,0.1,58.9c0,9.8,0,19.6,0.1,29.4c0,9.5,0.2,19-0.1,28.6c-0.3,9.8-1.3,19.7-4.9,28.9
			c1.5-0.6,2.9-1.2,4.4-1.8c-13.7-8.1-29.1-13.3-45-14.8c-4.4-0.4-8.7-0.6-13.1-0.4c-3.9,0.1-3.9,6.1,0,6
			c14.8-0.4,29.7,2.4,43.2,8.4c4.1,1.8,8,3.8,11.8,6.1c1.8,1.1,3.7,0,4.4-1.8c3.3-8.4,4.5-17.5,5-26.4c0.5-9.4,0.3-18.8,0.3-28.2
			c0-19.8-0.1-39.6-0.1-59.4c0-11.1,0-22.3-0.1-33.4C151.9,334,145.9,334,145.9,337.8L145.9,337.8z"/>
	</g>
</g>
<g>
	<g>
		<path d="M94.2,407.7c16.9-3.2,34.4-3.5,51.3-0.8c4.9,0.8,9.7,1.8,14.5,3.1c3.7,1,5.3-4.8,1.6-5.8c-17.4-4.6-35.6-6.2-53.6-4.5
			c-5.2,0.5-10.3,1.2-15.4,2.2c-1.6,0.3-2.5,2.2-2.1,3.7C90.9,407.3,92.6,408,94.2,407.7L94.2,407.7z"/>
	</g>
</g>
<g>
	<g>
		<path d="M231.2,435.1c7.7-17.6,18.2-42,41-41.5c11.5,0.2,22,5.9,31.2,12.3c9.7,6.7,18.6,14.6,28.7,20.8
			c17.2,10.5,37.7,13.6,57.2,8.3c9.6-2.6,18.6-7.1,26.4-13.1c1.9-1.4,3.7-2.9,5.5-4.5c0.9-0.9,1.9-1.8,2.8-2.7
			c0.5-0.5,0.9-0.9,1.4-1.4c0.3-0.3,0.6-0.6,0.9-1c-0.5,0.2-0.5,0.2,0.2,0c4.1-1,8.1-0.5,11.9,1.4c10.4,5.3,16,16.5,18.2,27.4
			c2.7,13.5,1.2,27.6-0.2,41.1c-0.2,1.6,1.5,3,3,3c35.9,1.1,71.7,2.2,107.6,3.2c1,0,2.1-0.6,2.6-1.5c8.2-16.5,10.2-35,16.6-52.1
			c4.7-12.5,13.6-28.4,28.9-28.2c7.2,0.1,13.3,4,16.3,10.6c0.8,1.7,3.6,2,4.7,0.6c5.1-6.2,10.3-12.5,15.4-18.7
			c2.4-3-1.8-7.2-4.2-4.2c-5.1,6.2-10.3,12.5-15.4,18.7c1.6,0.2,3.1,0.4,4.7,0.6c-6.4-13.9-24.5-17.3-36.7-9.1
			c-15.3,10.2-20.8,30-25.1,46.8c-2.8,10.9-5.4,22-10.4,32.1c0.9-0.5,1.7-1,2.6-1.5c-35.9-1.1-71.7-2.2-107.6-3.2c1,1,2,2,3,3
			c2.4-22.7,5-50.9-13.3-68.2c-3.5-3.3-7.8-6.1-12.5-7.4c-2.1-0.6-4.4-0.9-6.6-0.9c-2.3,0.1-5.6,0.3-7.5,1.9
			c-1.9,1.6-3.6,3.8-5.5,5.5c-2,1.8-4.1,3.5-6.3,5.1c-4.2,3-8.7,5.6-13.4,7.7c-18.4,8.1-40,7.7-57.7-1.8
			c-21.2-11.3-37.6-32.7-62.6-36c-12.6-1.7-24.3,3-32.7,12.4c-8.2,9.1-13.3,20.6-18.2,31.7c-0.7,1.5-0.4,3.2,1.1,4.1
			C228.3,436.9,230.5,436.5,231.2,435.1L231.2,435.1z"/>
	</g>
</g>
<g>
	<g>
		<path d="M639.7,479.3c3.9,0,3.9-6,0-6C635.9,473.3,635.9,479.3,639.7,479.3L639.7,479.3z"/>
	</g>
</g>
<g>
	<g>
		<path d="M612.8,481.5c3.9,0,3.9-6,0-6S608.9,481.5,612.8,481.5L612.8,481.5z"/>
	</g>
</g>
<g>
	<g>
		<path d="M587.8,481.5c3.9,0,3.9-6,0-6S583.9,481.5,587.8,481.5L587.8,481.5z"/>
	</g>
</g>
<g>
	<g>
		<path d="M443.5,483.8c3.9,0,3.9-6,0-6S439.6,483.8,443.5,483.8L443.5,483.8z"/>
	</g>
</g>
<g>
	<g>
		<path d="M403,488.3c3.9,0,3.9-6,0-6C399.2,482.3,399.2,488.3,403,488.3L403,488.3z"/>
	</g>
</g>
<g>
	<g>
		<path d="M349.2,486.1c3.9,0,3.9-6,0-6S345.3,486.1,349.2,486.1L349.2,486.1z"/>
	</g>
</g>
<g>
	<g>
		<path d="M268.3,474.7c3.9,0,3.9-6,0-6C264.5,468.7,264.5,474.7,268.3,474.7L268.3,474.7z"/>
	</g>
</g>
<g>
	<g>
		<path d="M187.5,474.7c3.9,0,3.9-6,0-6S183.6,474.7,187.5,474.7L187.5,474.7z"/>
	</g>
</g>
<g>
	<g>
		<path d="M789.9,371.4c-13.8,0-27.3-2.5-40.3-7.1c-1.7-0.6-4,1-3.8,2.9c1.1,12.2,2.2,24.4,3.3,36.6c0.2,2.6,3.1,4,5.1,2.1
			c3.9-3.6,8.6-6.4,13.8-7.7c2.3-0.6,4.8-1,7.2-0.8c0.3,0,0.4,0,1,0.2c0.3,0.1,0.5,0.1,0.8,0.2c0.6,0.2,0.3,0.1,0.2,0
			c0.3,0.1,0.6,0.3,0.8,0.5c0,0,0.4,0.3,0.1,0.1c0.4,0.3,0.6,0.6,0.7,0.8c1,2.2-0.2,5.5-0.7,7.7c-0.6,2.8-1.3,5.5-2.3,8.1
			c-1.7,5-4.2,9.9-7.9,13.7c-3.6,3.7-8.8,6.5-13.8,5.8c-1.6-0.2-3.2,0.4-3.7,2.1c-0.4,1.4,0.5,3.4,2.1,3.7c6.5,1,12.5-1.3,17.6-5.4
			c5.1-4.2,8.4-10.2,10.8-16.2c1.2-3.1,2.1-6.3,2.8-9.5c0.8-3.4,1.8-7.2,1-10.7c-1.6-7-9.4-7.5-15.2-6.7c-7.4,1.1-14.2,4.8-19.6,9.9
			c1.7,0.7,3.4,1.4,5.1,2.1c-1.1-12.2-2.2-24.4-3.3-36.6c-1.3,1-2.5,1.9-3.8,2.9c13.4,4.9,27.6,7.4,41.9,7.4
			C793.7,377.4,793.7,371.4,789.9,371.4L789.9,371.4z"/>
	</g>
</g>
<g>
	<g>
		<path d="M821.3,369.6c1,15.2,0.6,30.4-1.3,45.5c-0.2,1.6,1.5,3,3,3c1.8,0,2.8-1.4,3-3c1.9-15.1,2.3-30.3,1.3-45.5
			c-0.1-1.6-1.3-3-3-3C822.8,366.6,821.2,368,821.3,369.6L821.3,369.6z"/>
	</g>
</g>
<g>
	<g>
		<path d="M823.8,393.8c-2,9.2-0.8,19,3.6,27.4c0.8,1.4,2.8,1.9,4.1,1.1c1.5-0.9,1.8-2.7,1.1-4.1c-3.6-6.9-4.6-15.2-3-22.8
			c0.3-1.6-0.5-3.2-2.1-3.7C826,391.3,824.1,392.3,823.8,393.8L823.8,393.8z"/>
	</g>
</g>
<g>
	<g>
		<path d="M838,377.9c-11.6-0.6-22.8,4.2-31.2,12c-2.8,2.6,1.4,6.9,4.2,4.2c7.3-6.8,16.9-10.7,26.9-10.2c1.6,0.1,3-1.4,3-3
			C841,379.2,839.6,378,838,377.9L838,377.9z"/>
	</g>
</g>
<g>
	<g>
		<path d="M859.8,365.1c0.2,18,0.5,36.1,0.7,54.1c0,1.5,1.1,2.8,2.6,2.9c1.6,0.2,2.8-0.7,3.3-2.1c5-13.5,12.5-26.1,22.3-36.6
			c-1.7-0.4-3.3-0.9-5-1.3c2.1,10.2,4.2,20.4,6.3,30.6c0.3,1.4,1.9,2.4,3.3,2.1c1.5-0.2,2.5-1.4,2.6-2.9c1.1-17.8,1.4-35.7,0.8-53.6
			c-0.1-3.9-6.1-3.9-6,0c0.6,17.9,0.3,35.7-0.8,53.6c2-0.3,3.9-0.5,5.9-0.8c-2.1-10.2-4.2-20.4-6.3-30.6c-0.5-2.2-3.5-2.9-5-1.3
			C874,390.5,866,404,860.7,418.4c2,0.3,3.9,0.5,5.9,0.8c-0.2-18-0.5-36.1-0.7-54.1C865.7,361.2,859.7,361.2,859.8,365.1
			L859.8,365.1z"/>
	</g>
</g>
<g>
	<g>
		<path d="M1024.7,355c-1.6-4.7-3.4-9.7-7.3-13.1c-3.4-3-8-4.3-12.5-3.9c-4.7,0.5-9,2.4-12.7,5.5c-3.8,3.2-6.3,7.6-8.1,12.2
			c-1.9,4.5-2.9,9.3-4,14.1c-1.2,5.7-2.4,11.5-2.6,17.4c-0.1,5.8,1.1,11.3,3.2,16.6c2,5.3,3.9,10.5,4.9,16.1
			c1,5.4,1.3,10.9,1.5,16.4s-0.2,11.2,1.1,16.5c1.1,4.5,3.7,8.3,7.6,10.9c3.5,2.3,7.7,3.3,11.8,3.7c4.1,0.5,8.2,0.3,12.2-0.1
			c2.6-0.2,5.4-0.5,7.3-2.5c1.8-2,2.5-4.9,3.4-7.3c4-10.6,7.6-21.5,7.7-33c0.3-21.3-9.8-40.8-12.7-61.7c-0.3-2.5-0.5-4.9-0.6-7.4
			c-0.1-1.6-1.3-3-3-3c-1.6,0-3.1,1.4-3,3c0.8,20,9.7,38.4,12.6,58.1c0.7,4.7,0.9,9.5,0.6,14.2c-0.3,5.1-1.4,10.1-2.9,15
			c-1.5,5.1-3.4,10.1-5.2,15.1c-0.4,0.9-0.6,1.8-1.1,2.5c-0.3,0.5-0.8,0.6-1.6,0.7c-1.9,0.3-3.8,0.4-5.7,0.4
			c-3.8,0.2-7.4,0-10.8-0.7c-3.4-0.8-6.1-2-8.3-4.5c-0.4-0.5-0.8-1-1.2-1.8c-0.5-0.9-0.9-1.9-1.1-2.9c-0.6-2.2-0.7-4.5-0.7-6.8
			c-0.1-5.3-0.2-10.5-0.6-15.8c-0.4-5.4-1.1-10.8-2.5-16c-1.3-5-3.5-9.7-5.1-14.7c-3.2-10-0.8-20.4,1.5-30.4
			c1.8-8,4.6-17.3,11.9-21.7c1.7-1,3.1-1.6,5.1-2c1-0.2,1.2-0.3,2.2-0.3c0.4,0,0.9,0,1.3,0c0.2,0,0.4,0,0.7,0c0.1,0,0.7,0.1,0.4,0
			c1.9,0.3,3.3,0.8,4.8,2c1.4,1.2,2.6,2.9,3.5,4.6c1,1.9,1.7,3.9,2.4,5.9c0.5,1.5,2.1,2.5,3.7,2.1
			C1024.1,358.3,1025.2,356.5,1024.7,355L1024.7,355z"/>
	</g>
</g>
<g>
	<g>
		<path d="M1023.8,430.4c-3-3.9-9-4.7-13.4-3.1c-5.1,1.9-9.5,6.1-12.7,10.4c-3.7,4.9-2,11,2.2,14.9c3.6,3.4,8.3,4.9,13.2,5.3
			c5.4,0.5,10.9-0.4,16.2-1.5c1.6-0.3,2.5-2.2,2.1-3.7c-2-7.2-2.8-14.5-2.5-21.9c0.1-1.6-1.4-3-3-3c-1.7,0-2.9,1.4-3,3
			c-0.4,7.9,0.6,15.9,2.7,23.5c0.7-1.2,1.4-2.5,2.1-3.7c-3.8,0.8-7.3,1.3-11.2,1.4c-1.8,0-3.7-0.1-5.2-0.4c-1.9-0.4-3.4-0.8-4.9-1.7
			c-2.3-1.3-5.9-4.5-4.6-7.6c0.7-1.7,2.5-3.1,3.7-4.4c1.4-1.5,2.9-2.9,4.7-3.9c1.8-1.1,3.5-1.6,5.3-1.5c1.6,0.1,2.9,0.6,4.1,2.1
			c1,1.3,3.2,1,4.2,0C1025.1,433.4,1024.8,431.7,1023.8,430.4L1023.8,430.4z"/>
	</g>
</g>
<g>
	<g>
		<path d="M1077.5,355.1c-9.1,0-18.1,0-27.2,0.1c-1.6,0-3.1,1.4-3,3c0.2,5.2,0.5,10.3,0.7,15.5c0.1,2.5,0.2,5,0.3,7.5
			c0.1,2.5-0.2,5.8,2.6,7c1.2,0.5,2.4,0.3,3.6,0.2c1.3-0.1,2.6-0.3,4-0.4c2.5-0.3,5-0.5,7.4-0.8c5.1-0.5,10.3-1.1,15.4-1.6
			c2-0.2,3.4-1.7,2.9-3.8c-1.9-8.1-2.7-16.4-2.5-24.8c0.1-3.9-5.9-3.9-6,0c-0.2,8.9,0.7,17.7,2.7,26.4c1-1.3,1.9-2.5,2.9-3.8
			c-4.9,0.5-9.8,1-14.6,1.5c-2.4,0.3-4.8,0.5-7.2,0.8c-1.2,0.1-2.3,0.2-3.5,0.4c-0.7,0.1-1.3,0.1-2,0.2c-0.3,0-0.7,0.1-1,0.1
			c-0.5,0-0.4,0.1,0.3,0.2c0.4,0.4,0.7,0.7,1.1,1.1c0,0.1,0,0.3,0.1,0.4c0-0.3,0-0.7,0-1c0-0.5,0-1-0.1-1.5
			c-0.1-1.2-0.1-2.3-0.2-3.5c-0.1-2.2-0.2-4.3-0.3-6.5c-0.2-4.5-0.4-9-0.6-13.5c-1,1-2,2-3,3c9.1,0,18.1,0,27.2-0.1
			C1081.3,361.1,1081.3,355.1,1077.5,355.1L1077.5,355.1z"/>
	</g>
</g>
<g>
	<g>
		<path d="M1081.7,355.6c-0.5-9.7-3.5-19.3-9-27.3c-2.5-3.6-7.3-8-12-5.4c-2.3,1.3-3.1,3.8-3.9,6.2c-0.9,2.6-1.7,5.1-2.6,7.7
			c-2,5.8-4,11.7-5.9,17.5c-0.5,1.5,0.6,3.3,2.1,3.7c1.6,0.5,3.2-0.6,3.7-2.1c3-8.9,6-17.9,9.1-26.8c0.1-0.4,0.2-0.5,0.3-0.8
			c0.2-0.4,0.1-0.3,0-0.2c0,0.1,0.3-0.2,0.1-0.1c-0.2,0.1,0.1,0,0.2,0c-0.5-0.2,0.7,0.2,0.4,0.1c1.5,0.6,2.6,2,3.4,3.2
			c2.2,3.3,4,6.9,5.3,10.6c1.5,4.4,2.4,8.9,2.7,13.5c0.1,1.6,1.3,3,3,3C1080.3,358.6,1081.8,357.3,1081.7,355.6L1081.7,355.6z"/>
	</g>
</g>
<g>
	<g>
		<path d="M147.6,654.5c-5-1.5-10.1-3.1-15.1-4.6c-2.5-0.8-5-1.7-7.6-2.1c-2.6-0.3-4.8,0.5-6.8,2.1c-1.4,1.1-2.5,2.6-3.8,3.8
			c-0.5,0.5-0.7,0.7-1.3,1c-0.9,0.4-2,0.3-2.9,0.1c-5.1-1-10.2-2.6-15.2-3.9c-5.9-1.5-11.7-3.1-17.6-4.6c-2-0.5-3.7,1-3.8,2.9
			c-1.3,18.3-2.2,36.6-2.5,55s-0.1,36.9,0.6,55.3c0.4,10.3,1,20.6,1.7,30.9c0.1,1.6,1.3,3,3,3c1.5,0,3.1-1.4,3-3
			c-1.3-18.3-2-36.6-2.3-55s0-36.9,0.8-55.3c0.4-10.3,1-20.6,1.8-30.9c-1.3,1-2.5,1.9-3.8,2.9c10.4,2.7,20.7,5.4,31.1,8.1
			c2.5,0.6,5.1,1.2,7.6,0.4c2-0.6,3.7-2,5.1-3.5c0.6-0.6,1.1-1.2,1.8-1.8c0.3-0.3,0.6-0.6,1-0.9c-0.3,0.2,0.8-0.5,0.6-0.4
			c1.5-0.6,4.2,0.6,5.9,1.1c5.7,1.8,11.5,3.5,17.2,5.3C149.7,661.4,151.3,655.6,147.6,654.5L147.6,654.5z"/>
	</g>
</g>
<g>
	<g>
		<path d="M226,759.9c8.3,18.9,19.3,42.5,42.8,44.4c11.8,0.9,23.6-3.9,33.4-10.1c10.4-6.6,19.6-14.9,29.9-21.7
			c8.9-5.9,18.5-10.1,29.1-11.5c9.9-1.3,20-0.3,29.4,2.7c9.7,3.1,18.8,8.4,26.4,15.3c1.9,1.7,3.5,3.9,5.5,5.5
			c1.9,1.5,5.1,1.8,7.5,1.9c4.7,0.1,9.4-1.4,13.4-3.9c10.5-6.5,16.6-18.1,19-29.9c2.8-14.1,1.5-28.6,0-42.7c-1,1-2,2-3,3
			c35.9-1.1,71.7-2.2,107.6-3.2c-0.9-0.5-1.7-1-2.6-1.5c8.8,17.6,10.3,37.8,18.1,55.9c6.1,14.2,17.9,29.3,35.1,27.3
			c8.3-1,15.5-5.7,19-13.4c-1.6,0.2-3.1,0.4-4.7,0.6c5.1,6.2,10.3,12.5,15.4,18.7c2.5,3,6.7-1.3,4.2-4.2
			c-5.1-6.2-10.3-12.5-15.4-18.7c-1.2-1.4-3.9-1.1-4.7,0.6c-5.8,12.5-21.6,13.3-31.2,4.8c-12.6-11.1-16.6-29.2-20.5-44.7
			c-2.6-10.2-5.4-20.4-10.1-29.8c-0.5-0.9-1.6-1.5-2.6-1.5c-35.9,1.1-71.7,2.2-107.6,3.2c-1.5,0-3.2,1.3-3,3
			c2.2,21.4,5.6,49.5-12.9,65.2c-3.2,2.7-7.2,4.9-11.4,5.3c-1.9,0.2-3.8,0-5.6-0.5c-0.2-0.1-0.4-0.1-0.5-0.2
			c0.5,0.2,0.5,0.1-0.1-0.4c-0.3-0.5-0.9-1-1.3-1.4c-1-1.1-2.1-2.1-3.2-3.1c-7.5-6.8-16.1-12.1-25.6-15.6
			c-18.3-6.9-39.1-6.1-56.7,2.5c-20.8,10.1-36.1,30.7-59.4,35.9c-6,1.3-12.2,1.3-18-0.8c-5.2-1.8-9.5-5.4-13.1-9.4
			c-7.8-8.7-12.6-19.9-17.3-30.5c-0.7-1.5-2.8-1.8-4.1-1.1C225.5,756.7,225.3,758.4,226,759.9L226,759.9z"/>
	</g>
</g>
<g>
	<g>
		<path d="M639.7,795.3c3.9,0,3.9-6,0-6C635.9,789.3,635.9,795.3,639.7,795.3L639.7,795.3z"/>
	</g>
</g>
<g>
	<g>
		<path d="M612.8,797.6c3.9,0,3.9-6,0-6S608.9,797.6,612.8,797.6L612.8,797.6z"/>
	</g>
</g>
<g>
	<g>
		<path d="M587.8,797.6c3.9,0,3.9-6,0-6S583.9,797.6,587.8,797.6L587.8,797.6z"/>
	</g>
</g>
<g>
	<g>
		<path d="M443.5,799.9c3.9,0,3.9-6,0-6S439.6,799.9,443.5,799.9L443.5,799.9z"/>
	</g>
</g>
<g>
	<g>
		<path d="M403,804.4c3.9,0,3.9-6,0-6C399.2,798.4,399.2,804.4,403,804.4L403,804.4z"/>
	</g>
</g>
<g>
	<g>
		<path d="M349.2,802.2c3.9,0,3.9-6,0-6S345.3,802.2,349.2,802.2L349.2,802.2z"/>
	</g>
</g>
<g>
	<g>
		<path d="M268.3,790.8c3.9,0,3.9-6,0-6C264.5,784.8,264.5,790.8,268.3,790.8L268.3,790.8z"/>
	</g>
</g>
<g>
	<g>
		<path d="M187.5,790.8c3.9,0,3.9-6,0-6S183.6,790.8,187.5,790.8L187.5,790.8z"/>
	</g>
</g>
<g>
	<g>
		<path d="M789.9,687.5c-13.8,0-27.3-2.5-40.3-7.1c-1.7-0.6-4,1-3.8,2.9c1.1,12.2,2.2,24.4,3.3,36.6c0.2,2.6,3.1,4,5.1,2.1
			c3.9-3.6,8.6-6.4,13.8-7.7c2.3-0.6,4.8-1,7.2-0.8c0.3,0,0.4,0,1,0.2c0.3,0.1,0.5,0.1,0.8,0.2c0.6,0.2,0.3,0.1,0.2,0
			c0.3,0.1,0.6,0.3,0.8,0.5c0,0,0.4,0.3,0.1,0.1c0.4,0.3,0.6,0.6,0.7,0.8c1,2.2-0.2,5.5-0.7,7.7c-0.6,2.8-1.3,5.5-2.3,8.1
			c-1.7,5-4.2,9.9-7.9,13.7c-3.6,3.7-8.8,6.5-13.8,5.8c-1.6-0.2-3.2,0.4-3.7,2.1c-0.4,1.4,0.5,3.4,2.1,3.7c6.5,1,12.5-1.3,17.6-5.4
			c5.1-4.2,8.4-10.2,10.8-16.2c1.2-3.1,2.1-6.3,2.8-9.5c0.8-3.4,1.8-7.2,1-10.7c-1.6-7-9.4-7.5-15.2-6.7c-7.4,1.1-14.2,4.8-19.6,9.9
			c1.7,0.7,3.4,1.4,5.1,2.1c-1.1-12.2-2.2-24.4-3.3-36.6c-1.3,1-2.5,1.9-3.8,2.9c13.4,4.9,27.6,7.4,41.9,7.4
			C793.7,693.5,793.7,687.5,789.9,687.5L789.9,687.5z"/>
	</g>
</g>
<g>
	<g>
		<path d="M821.3,685.7c1,15.2,0.6,30.4-1.3,45.5c-0.2,1.6,1.5,3,3,3c1.8,0,2.8-1.4,3-3c1.9-15.1,2.3-30.3,1.3-45.5
			c-0.1-1.6-1.3-3-3-3C822.8,682.7,821.2,684.1,821.3,685.7L821.3,685.7z"/>
	</g>
</g>
<g>
	<g>
		<path d="M823.8,709.9c-2,9.2-0.8,19,3.6,27.4c0.8,1.4,2.8,1.9,4.1,1.1c1.5-0.9,1.8-2.7,1.1-4.1c-3.6-6.9-4.6-15.2-3-22.8
			c0.3-1.6-0.5-3.2-2.1-3.7C826,707.4,824.1,708.3,823.8,709.9L823.8,709.9z"/>
	</g>
</g>
<g>
	<g>
		<path d="M838,694c-11.6-0.6-22.8,4.2-31.2,12c-2.8,2.6,1.4,6.9,4.2,4.2c7.3-6.8,16.9-10.7,26.9-10.2c1.6,0.1,3-1.4,3-3
			C841,695.3,839.6,694.1,838,694L838,694z"/>
	</g>
</g>
<g>
	<g>
		<path d="M859.8,681.2c0.2,18,0.5,36.1,0.7,54.1c0,1.5,1.1,2.8,2.6,2.9c1.6,0.2,2.8-0.7,3.3-2.1c5-13.5,12.5-26.1,22.3-36.6
			c-1.7-0.4-3.3-0.9-5-1.3c2.1,10.2,4.2,20.4,6.3,30.6c0.3,1.4,1.9,2.4,3.3,2.1c1.5-0.2,2.5-1.4,2.6-2.9c1.1-17.8,1.4-35.7,0.8-53.6
			c-0.1-3.9-6.1-3.9-6,0c0.6,17.9,0.3,35.7-0.8,53.6c2-0.3,3.9-0.5,5.9-0.8c-2.1-10.2-4.2-20.4-6.3-30.6c-0.5-2.2-3.5-2.9-5-1.3
			c-10.5,11.3-18.5,24.8-23.8,39.2c2,0.3,3.9,0.5,5.9,0.8c-0.2-18-0.5-36.1-0.7-54.1C865.7,677.3,859.7,677.3,859.8,681.2
			L859.8,681.2z"/>
	</g>
</g>
<g>
	<g>
		<path d="M1024.7,671.1c-1.6-4.7-3.4-9.7-7.3-13.1c-3.4-3-8-4.3-12.5-3.9c-4.7,0.5-9,2.4-12.7,5.5c-3.8,3.2-6.3,7.6-8.1,12.2
			c-1.9,4.5-2.9,9.3-4,14.1c-1.2,5.7-2.4,11.5-2.6,17.4c-0.1,5.8,1.1,11.3,3.2,16.6c2,5.3,3.9,10.5,4.9,16.1
			c1,5.4,1.3,10.9,1.5,16.4s-0.2,11.2,1.1,16.5c1.1,4.5,3.7,8.3,7.6,10.9c3.5,2.3,7.7,3.3,11.8,3.7c4.1,0.5,8.2,0.3,12.2-0.1
			c2.6-0.2,5.4-0.5,7.3-2.5c1.8-2,2.5-4.9,3.4-7.3c4-10.6,7.6-21.5,7.7-33c0.3-21.3-9.8-40.8-12.7-61.7c-0.3-2.5-0.5-4.9-0.6-7.4
			c-0.1-1.6-1.3-3-3-3c-1.6,0-3.1,1.4-3,3c0.8,20,9.7,38.4,12.6,58.1c0.7,4.7,0.9,9.5,0.6,14.2c-0.3,5.1-1.4,10.1-2.9,15
			c-1.5,5.1-3.4,10.1-5.2,15.1c-0.4,0.9-0.6,1.8-1.1,2.5c-0.3,0.5-0.8,0.6-1.6,0.7c-1.9,0.3-3.8,0.4-5.7,0.4
			c-3.8,0.2-7.4,0-10.8-0.7c-3.4-0.8-6.1-2-8.3-4.5c-0.4-0.5-0.8-1-1.2-1.8c-0.5-0.9-0.9-1.9-1.1-2.9c-0.6-2.2-0.7-4.5-0.7-6.8
			c-0.1-5.3-0.2-10.5-0.6-15.8c-0.4-5.4-1.1-10.8-2.5-16c-1.3-5-3.5-9.7-5.1-14.7c-3.2-10-0.8-20.4,1.5-30.4
			c1.8-8,4.6-17.3,11.9-21.7c1.7-1,3.1-1.6,5.1-2c1-0.2,1.2-0.3,2.2-0.3c0.4,0,0.9,0,1.3,0c0.2,0,0.4,0,0.7,0c0.1,0,0.7,0.1,0.4,0
			c1.9,0.3,3.3,0.8,4.8,2c1.4,1.2,2.6,2.9,3.5,4.6c1,1.9,1.7,3.9,2.4,5.9c0.5,1.5,2.1,2.5,3.7,2.1
			C1024.1,674.4,1025.2,672.6,1024.7,671.1L1024.7,671.1z"/>
	</g>
</g>
<g>
	<g>
		<path d="M1023.8,746.5c-3-3.9-9-4.7-13.4-3.1c-5.1,1.9-9.5,6.1-12.7,10.4c-3.7,4.9-2,11,2.2,14.9c3.6,3.4,8.3,4.9,13.2,5.3
			c5.4,0.5,10.9-0.4,16.2-1.5c1.6-0.3,2.5-2.2,2.1-3.7c-2-7.2-2.8-14.5-2.5-21.9c0.1-1.6-1.4-3-3-3c-1.7,0-2.9,1.4-3,3
			c-0.4,7.9,0.6,15.9,2.7,23.5c0.7-1.2,1.4-2.5,2.1-3.7c-3.8,0.8-7.3,1.3-11.2,1.4c-1.8,0-3.7-0.1-5.2-0.4c-1.9-0.4-3.4-0.8-4.9-1.7
			c-2.3-1.3-5.9-4.5-4.6-7.6c0.7-1.7,2.5-3.1,3.7-4.4c1.4-1.5,2.9-2.9,4.7-3.9c1.8-1.1,3.5-1.6,5.3-1.5c1.6,0.1,2.9,0.6,4.1,2.1
			c1,1.3,3.2,1,4.2,0C1025.1,749.5,1024.8,747.8,1023.8,746.5L1023.8,746.5z"/>
	</g>
</g>
<g>
	<g>
		<path d="M1077.5,671.2c-9.1,0-18.1,0-27.2,0.1c-1.6,0-3.1,1.4-3,3c0.2,5.2,0.5,10.3,0.7,15.5c0.1,2.5,0.2,5,0.3,7.5
			c0.1,2.5-0.2,5.8,2.6,7c1.2,0.5,2.4,0.3,3.6,0.2c1.3-0.1,2.6-0.3,4-0.4c2.5-0.3,5-0.5,7.4-0.8c5.1-0.5,10.3-1.1,15.4-1.6
			c2-0.2,3.4-1.7,2.9-3.8c-1.9-8.1-2.7-16.4-2.5-24.8c0.1-3.9-5.9-3.9-6,0c-0.2,8.9,0.7,17.7,2.7,26.4c1-1.3,1.9-2.5,2.9-3.8
			c-4.9,0.5-9.8,1-14.6,1.5c-2.4,0.3-4.8,0.5-7.2,0.8c-1.2,0.1-2.3,0.2-3.5,0.4c-0.7,0.1-1.3,0.1-2,0.2c-0.3,0-0.7,0.1-1,0.1
			c-0.5,0-0.4,0.1,0.3,0.2c0.4,0.4,0.7,0.7,1.1,1.1c0,0.1,0,0.3,0.1,0.4c0-0.3,0-0.7,0-1c0-0.5,0-1-0.1-1.5
			c-0.1-1.2-0.1-2.3-0.2-3.5c-0.1-2.2-0.2-4.3-0.3-6.5c-0.2-4.5-0.4-9-0.6-13.5c-1,1-2,2-3,3c9.1,0,18.1,0,27.2-0.1
			C1081.3,677.2,1081.3,671.2,1077.5,671.2L1077.5,671.2z"/>
	</g>
</g>
<g>
	<g>
		<path d="M1081.7,671.7c-0.5-9.7-3.5-19.3-9-27.3c-2.5-3.6-7.3-8-12-5.4c-2.3,1.3-3.1,3.8-3.9,6.2c-0.9,2.6-1.7,5.1-2.6,7.7
			c-2,5.8-4,11.7-5.9,17.5c-0.5,1.5,0.6,3.3,2.1,3.7c1.6,0.5,3.2-0.6,3.7-2.1c3-8.9,6-17.9,9.1-26.8c0.1-0.4,0.2-0.5,0.3-0.8
			c0.2-0.4,0.1-0.3,0-0.2c0,0.1,0.3-0.2,0.1-0.1c-0.2,0.1,0.1,0,0.2,0c-0.5-0.2,0.7,0.2,0.4,0.1c1.5,0.6,2.6,2,3.4,3.2
			c2.2,3.3,4,6.9,5.3,10.6c1.5,4.4,2.4,8.9,2.7,13.5c0.1,1.6,1.3,3,3,3C1080.3,674.7,1081.8,673.4,1081.7,671.7L1081.7,671.7z"/>
	</g>
</g>
<g>
	<g>
		<path d="M117.4,952.1c-5-1.5-10.1-3.1-15.1-4.6c-2.5-0.8-5-1.8-7.6-2.1c-2.6-0.3-4.8,0.5-6.8,2.1c-1.4,1.1-2.5,2.6-3.8,3.8
			c-0.5,0.5-0.7,0.7-1.3,1c-0.9,0.4-2,0.3-2.9,0.1c-5.1-1-10.2-2.6-15.2-3.9c-5.9-1.5-11.7-3.1-17.6-4.6c-2-0.5-3.7,1-3.8,2.9
			c-1.3,18.3-2.2,36.6-2.5,55s-0.1,36.9,0.6,55.3c0.4,10.3,1,20.6,1.7,30.9c0.1,1.6,1.3,3,3,3c1.5,0,3.1-1.4,3-3
			c-1.3-18.3-2-36.6-2.3-55c-0.3-18.4,0-36.9,0.8-55.3c0.4-10.3,1-20.6,1.8-30.9c-1.3,1-2.5,1.9-3.8,2.9c10.4,2.7,20.7,5.4,31.1,8.1
			c2.5,0.6,5.1,1.2,7.6,0.4c2-0.6,3.7-2,5.1-3.5c0.6-0.6,1.1-1.2,1.8-1.8c0.3-0.3,0.6-0.6,1-0.9c-0.3,0.2,0.8-0.5,0.6-0.4
			c1.5-0.6,4.2,0.6,5.9,1.1c5.7,1.8,11.5,3.5,17.2,5.3C119.5,959,121.1,953.3,117.4,952.1L117.4,952.1z"/>
	</g>
</g>
<g>
	<g>
		<path d="M115.8,951.6c0,19.6,0.1,39.2,0.1,58.9c0,9.8,0,19.6,0.1,29.4c0,9.5,0.2,19-0.1,28.6c-0.3,9.8-1.3,19.7-4.9,28.9
			c1.5-0.6,2.9-1.2,4.4-1.8c-13.7-8.1-29.1-13.3-45-14.8c-4.4-0.4-8.7-0.6-13.1-0.4c-3.9,0.1-3.9,6.1,0,6
			c14.8-0.4,29.7,2.4,43.2,8.4c4.1,1.8,8,3.8,11.8,6.1c1.8,1.1,3.7,0,4.4-1.8c3.3-8.4,4.5-17.5,5-26.4c0.5-9.4,0.3-18.8,0.3-28.2
			c0-19.8-0.1-39.6-0.1-59.4c0-11.1,0-22.3-0.1-33.4C121.8,947.7,115.8,947.7,115.8,951.6L115.8,951.6z"/>
	</g>
</g>
<g>
	<g>
		<path d="M64,1021.5c16.9-3.2,34.4-3.5,51.3-0.8c4.9,0.8,9.7,1.8,14.5,3.1c3.7,1,5.3-4.8,1.6-5.8c-17.4-4.6-35.6-6.2-53.6-4.5
			c-5.2,0.5-10.3,1.2-15.4,2.2c-1.6,0.3-2.5,2.2-2.1,3.7C60.8,1021.1,62.4,1021.8,64,1021.5L64,1021.5z"/>
	</g>
</g>
<g>
	<g>
		<path d="M201,1048.8c7.7-17.6,18.2-42,41-41.5c11.5,0.2,22,5.9,31.2,12.3c9.7,6.7,18.6,14.6,28.7,20.8
			c17.2,10.5,37.7,13.6,57.2,8.3c9.6-2.6,18.6-7.1,26.4-13.1c1.9-1.4,3.7-2.9,5.5-4.5c0.9-0.9,1.9-1.8,2.8-2.7
			c0.5-0.5,0.9-0.9,1.4-1.4c0.3-0.3,0.6-0.6,0.9-1c-0.5,0.2-0.5,0.2,0.2,0c4.1-1,8.1-0.5,11.9,1.4c10.4,5.3,16,16.5,18.2,27.4
			c2.7,13.5,1.2,27.6-0.2,41.1c-0.2,1.6,1.5,3,3,3c35.9,1.1,71.7,2.2,107.6,3.2c1,0,2.1-0.6,2.6-1.5c8.2-16.5,10.2-35,16.6-52.1
			c4.7-12.5,13.6-28.4,28.9-28.2c7.2,0.1,13.3,4,16.3,10.6c0.8,1.7,3.6,2,4.7,0.6c5.1-6.2,10.3-12.5,15.4-18.7
			c2.4-3-1.8-7.2-4.2-4.2c-5.1,6.2-10.3,12.5-15.4,18.7c1.6,0.2,3.1,0.4,4.7,0.6c-6.4-13.9-24.5-17.3-36.7-9.1
			c-15.3,10.2-20.8,30-25.1,46.8c-2.8,10.9-5.4,22-10.4,32.1c0.9-0.5,1.7-1,2.6-1.5c-35.9-1.1-71.7-2.2-107.6-3.2c1,1,2,2,3,3
			c2.4-22.7,5-50.9-13.3-68.2c-3.5-3.3-7.8-6.1-12.5-7.4c-2.1-0.6-4.4-0.9-6.6-0.9c-2.3,0.1-5.6,0.3-7.5,1.9s-3.6,3.8-5.5,5.5
			c-2,1.8-4.1,3.5-6.3,5.1c-4.2,3-8.7,5.6-13.4,7.7c-18.4,8.1-40,7.7-57.7-1.8c-21.2-11.3-37.6-32.7-62.6-36
			c-12.6-1.7-24.3,3-32.7,12.4c-8.2,9.1-13.3,20.6-18.2,31.7c-0.7,1.5-0.4,3.2,1.1,4.1C198.2,1050.6,200.4,1050.3,201,1048.8
			L201,1048.8z"/>
	</g>
</g>
<g>
	<g>
		<path d="M609.6,1093c3.9,0,3.9-6,0-6C605.8,1087,605.7,1093,609.6,1093L609.6,1093z"/>
	</g>
</g>
<g>
	<g>
		<path d="M582.7,1095.3c3.9,0,3.9-6,0-6C578.8,1089.3,578.8,1095.3,582.7,1095.3L582.7,1095.3z"/>
	</g>
</g>
<g>
	<g>
		<path d="M557.7,1095.3c3.9,0,3.9-6,0-6C553.8,1089.3,553.8,1095.3,557.7,1095.3L557.7,1095.3z"/>
	</g>
</g>
<g>
	<g>
		<path d="M413.3,1097.5c3.9,0,3.9-6,0-6C409.5,1091.5,409.5,1097.5,413.3,1097.5L413.3,1097.5z"/>
	</g>
</g>
<g>
	<g>
		<path d="M372.9,1102.1c3.9,0,3.9-6,0-6S369,1102.1,372.9,1102.1L372.9,1102.1z"/>
	</g>
</g>
<g>
	<g>
		<path d="M319,1099.8c3.9,0,3.9-6,0-6C315.2,1093.8,315.2,1099.8,319,1099.8L319,1099.8z"/>
	</g>
</g>
<g>
	<g>
		<path d="M238.2,1088.5c3.9,0,3.9-6,0-6C234.3,1082.5,234.3,1088.5,238.2,1088.5L238.2,1088.5z"/>
	</g>
</g>
<g>
	<g>
		<path d="M157.4,1088.5c3.9,0,3.9-6,0-6C153.5,1082.5,153.5,1088.5,157.4,1088.5L157.4,1088.5z"/>
	</g>
</g>
<g>
	<g>
		<path d="M759.7,985.2c-13.8,0-27.3-2.5-40.3-7.1c-1.7-0.6-4,1-3.8,2.9c1.1,12.2,2.2,24.4,3.3,36.6c0.2,2.6,3.1,4,5.1,2.1
			c3.9-3.6,8.6-6.4,13.8-7.7c2.3-0.6,4.8-1,7.2-0.8c0.3,0,0.4,0,1,0.2c0.3,0.1,0.5,0.1,0.8,0.2c0.6,0.2,0.3,0.1,0.2,0
			c0.3,0.1,0.6,0.3,0.8,0.5c0,0,0.4,0.3,0.1,0.1c0.4,0.3,0.6,0.6,0.7,0.8c1,2.2-0.2,5.5-0.7,7.7c-0.6,2.8-1.3,5.5-2.3,8.1
			c-1.7,5-4.2,9.9-7.9,13.7c-3.6,3.7-8.8,6.5-13.8,5.8c-1.6-0.2-3.2,0.4-3.7,2.1c-0.4,1.4,0.5,3.4,2.1,3.7c6.5,1,12.5-1.3,17.6-5.4
			c5.1-4.2,8.4-10.2,10.8-16.2c1.2-3.1,2.1-6.3,2.8-9.5c0.8-3.4,1.8-7.2,1-10.7c-1.6-7-9.4-7.5-15.2-6.7c-7.4,1.1-14.2,4.8-19.6,9.9
			c1.7,0.7,3.4,1.4,5.1,2.1c-1.1-12.2-2.2-24.4-3.3-36.6c-1.3,1-2.5,1.9-3.8,2.9c13.4,4.9,27.6,7.4,41.9,7.4
			C763.6,991.2,763.6,985.2,759.7,985.2L759.7,985.2z"/>
	</g>
</g>
<g>
	<g>
		<path d="M791.2,983.4c1,15.2,0.6,30.4-1.3,45.5c-0.2,1.6,1.5,3,3,3c1.8,0,2.8-1.4,3-3c1.9-15.1,2.3-30.3,1.3-45.5
			c-0.1-1.6-1.3-3-3-3C792.6,980.4,791.1,981.7,791.2,983.4L791.2,983.4z"/>
	</g>
</g>
<g>
	<g>
		<path d="M793.7,1007.6c-2,9.2-0.8,19,3.6,27.4c0.8,1.4,2.8,1.9,4.1,1.1c1.5-0.9,1.8-2.7,1.1-4.1c-3.6-6.9-4.6-15.2-3-22.8
			c0.3-1.6-0.5-3.2-2.1-3.7C795.8,1005.1,794,1006,793.7,1007.6L793.7,1007.6z"/>
	</g>
</g>
<g>
	<g>
		<path d="M807.8,991.6c-11.6-0.6-22.8,4.2-31.2,12c-2.8,2.6,1.4,6.9,4.2,4.2c7.3-6.8,16.9-10.7,26.9-10.2c1.6,0.1,3-1.4,3-3
			C810.8,992.9,809.5,991.7,807.8,991.6L807.8,991.6z"/>
	</g>
</g>
<g>
	<g>
		<path d="M829.6,978.8c0.2,18,0.5,36.1,0.7,54.1c0,1.5,1.1,2.8,2.6,2.9c1.6,0.2,2.8-0.7,3.3-2.1c5-13.5,12.5-26.1,22.3-36.6
			c-1.7-0.4-3.3-0.9-5-1.3c2.1,10.2,4.2,20.4,6.3,30.6c0.3,1.4,1.9,2.4,3.3,2.1c1.5-0.2,2.5-1.4,2.6-2.9c1.1-17.8,1.4-35.7,0.8-53.6
			c-0.1-3.9-6.1-3.9-6,0c0.6,17.9,0.3,35.7-0.8,53.6c2-0.3,3.9-0.5,5.9-0.8c-2.1-10.2-4.2-20.4-6.3-30.6c-0.5-2.2-3.5-2.9-5-1.3
			c-10.5,11.3-18.5,24.8-23.8,39.2c2,0.3,3.9,0.5,5.9,0.8c-0.2-18-0.5-36.1-0.7-54.1C835.6,975,829.6,974.9,829.6,978.8L829.6,978.8
			z"/>
	</g>
</g>
<g>
	<g>
		<path d="M994.5,968.8c-1.6-4.7-3.4-9.7-7.3-13.1c-3.4-3-8-4.3-12.5-3.9c-4.7,0.5-9,2.4-12.7,5.5c-3.8,3.2-6.3,7.6-8.1,12.2
			c-1.9,4.5-2.9,9.3-4,14.1c-1.2,5.7-2.4,11.5-2.6,17.4c-0.1,5.8,1.1,11.3,3.2,16.6c2,5.3,3.9,10.5,4.9,16.1
			c1,5.4,1.3,10.9,1.5,16.4s-0.2,11.2,1.1,16.5c1.1,4.5,3.7,8.3,7.6,10.9c3.5,2.3,7.7,3.3,11.8,3.7c4.1,0.5,8.2,0.3,12.2-0.1
			c2.6-0.2,5.4-0.5,7.3-2.5c1.8-2,2.5-4.9,3.4-7.3c4-10.6,7.6-21.5,7.7-33c0.3-21.3-9.8-40.8-12.7-61.7c-0.3-2.5-0.5-4.9-0.6-7.4
			c-0.1-1.6-1.3-3-3-3c-1.6,0-3.1,1.4-3,3c0.8,20,9.7,38.4,12.6,58.1c0.7,4.7,0.9,9.5,0.6,14.2c-0.3,5.1-1.4,10.1-2.9,15
			c-1.5,5.1-3.4,10.1-5.2,15.1c-0.4,0.9-0.6,1.8-1.1,2.5c-0.3,0.5-0.8,0.6-1.6,0.7c-1.9,0.3-3.8,0.4-5.7,0.4
			c-3.8,0.2-7.4,0-10.8-0.7c-3.4-0.8-6.1-2-8.3-4.5c-0.4-0.5-0.8-1-1.2-1.8c-0.5-0.9-0.9-1.9-1.1-2.9c-0.6-2.2-0.7-4.5-0.7-6.8
			c-0.1-5.3-0.2-10.5-0.6-15.8c-0.4-5.4-1.1-10.8-2.5-16c-1.3-5-3.5-9.7-5.1-14.7c-3.2-10-0.8-20.4,1.5-30.4
			c1.8-8,4.6-17.3,11.9-21.7c1.7-1,3.1-1.6,5.1-2c1-0.2,1.2-0.3,2.2-0.3c0.4,0,0.9,0,1.3,0c0.2,0,0.4,0,0.7,0c0.1,0,0.7,0.1,0.4,0
			c1.9,0.3,3.3,0.8,4.8,2c1.4,1.2,2.6,2.9,3.5,4.6c1,1.9,1.7,3.9,2.4,5.9c0.5,1.5,2.1,2.5,3.7,2.1
			C993.9,972,995.1,970.3,994.5,968.8L994.5,968.8z"/>
	</g>
</g>
<g>
	<g>
		<path d="M993.7,1044.2c-3-3.9-9-4.7-13.4-3.1c-5.1,1.9-9.5,6.1-12.7,10.4c-3.7,4.9-2,11,2.2,14.9c3.6,3.4,8.3,4.9,13.2,5.3
			c5.4,0.5,10.9-0.4,16.2-1.5c1.6-0.3,2.5-2.2,2.1-3.7c-2-7.2-2.8-14.5-2.5-21.9c0.1-1.6-1.4-3-3-3c-1.7,0-2.9,1.4-3,3
			c-0.4,7.9,0.6,15.9,2.7,23.5c0.7-1.2,1.4-2.5,2.1-3.7c-3.8,0.8-7.3,1.3-11.2,1.4c-1.8,0-3.7-0.1-5.2-0.4c-1.9-0.4-3.4-0.8-4.9-1.7
			c-2.3-1.3-5.9-4.5-4.6-7.6c0.7-1.7,2.5-3.1,3.7-4.4c1.4-1.5,2.9-2.9,4.7-3.9c1.8-1.1,3.5-1.6,5.3-1.5c1.6,0.1,2.9,0.6,4.1,2.1
			c1,1.3,3.2,1,4.2,0C994.9,1047.1,994.7,1045.5,993.7,1044.2L993.7,1044.2z"/>
	</g>
</g>
<g>
	<g>
		<path d="M1047.3,968.8c-9.1,0-18.1,0-27.2,0.1c-1.6,0-3.1,1.4-3,3c0.2,5.2,0.5,10.3,0.7,15.5c0.1,2.5,0.2,5,0.3,7.5
			s-0.2,5.8,2.6,7c1.2,0.5,2.4,0.3,3.6,0.2c1.3-0.1,2.6-0.3,4-0.4c2.5-0.3,5-0.5,7.4-0.8c5.1-0.5,10.3-1.1,15.4-1.6
			c2-0.2,3.4-1.7,2.9-3.8c-1.9-8.1-2.7-16.4-2.5-24.8c0.1-3.9-5.9-3.9-6,0c-0.2,8.9,0.7,17.7,2.7,26.4c1-1.3,1.9-2.5,2.9-3.8
			c-4.9,0.5-9.8,1-14.6,1.5c-2.4,0.3-4.8,0.5-7.2,0.8c-1.2,0.1-2.3,0.2-3.5,0.4c-0.7,0.1-1.3,0.1-2,0.2c-0.3,0-0.7,0.1-1,0.1
			c-0.5,0-0.4,0.1,0.3,0.2c0.4,0.4,0.7,0.7,1.1,1.1c0,0.1,0,0.3,0.1,0.4c0-0.3,0-0.7,0-1c0-0.5,0-1-0.1-1.5
			c-0.1-1.2-0.1-2.3-0.2-3.5c-0.1-2.2-0.2-4.3-0.3-6.5c-0.2-4.5-0.4-9-0.6-13.5c-1,1-2,2-3,3c9.1,0,18.1,0,27.2-0.1
			C1051.2,974.8,1051.2,968.8,1047.3,968.8L1047.3,968.8z"/>
	</g>
</g>
<g>
	<g>
		<path d="M1051.6,969.4c-0.5-9.7-3.5-19.3-9-27.3c-2.5-3.6-7.3-8-12-5.4c-2.3,1.3-3.1,3.8-3.9,6.2c-0.9,2.6-1.7,5.1-2.6,7.7
			c-2,5.8-4,11.7-5.9,17.5c-0.5,1.5,0.6,3.3,2.1,3.7c1.6,0.5,3.2-0.6,3.7-2.1c3-8.9,6-17.9,9.1-26.8c0.1-0.4,0.2-0.5,0.3-0.8
			c0.2-0.4,0.1-0.3,0-0.2c0,0.1,0.3-0.2,0.1-0.1c-0.2,0.1,0.1,0,0.2,0c-0.5-0.2,0.7,0.2,0.4,0.1c1.5,0.6,2.6,2,3.4,3.2
			c2.2,3.3,4,6.9,5.3,10.6c1.5,4.4,2.4,8.9,2.7,13.5c0.1,1.6,1.3,3,3,3C1050.1,972.4,1051.6,971,1051.6,969.4L1051.6,969.4z"/>
	</g>
</g>
<line class="st0" x1="649.4" y1="133.5" x2="649.4" y2="248.4"/>
<g>
	<g>
		<path d="M706.8,140.2c15.8,0.4,31.6,0.8,47.3,1.3c0-2,0-4,0-6c-14.7,0.7-29.4,0.4-44-0.9c-1.6-0.1-3,1.5-3,3c0,1.7,1.4,2.9,3,3
			c14.6,1.3,29.3,1.6,44,0.9c3.8-0.2,3.9-5.9,0-6c-15.8-0.4-31.6-0.8-47.3-1.3C703,134.1,703,140.1,706.8,140.2L706.8,140.2z"/>
	</g>
</g>
<g>
	<g>
		<path d="M690.6,419.3c8.5-0.6,17-0.4,25.5,0.8c0.3-2,0.5-3.9,0.8-5.9c-5.7,0-11.3,0.1-17,0.1c-3.9,0-3.9,6,0,6
			c5.7,0,11.3-0.1,17-0.1c1.5,0,2.8-1.1,2.9-2.6c0.2-1.3-0.7-3.1-2.1-3.3c-9-1.3-18-1.7-27-1c-1.6,0.1-3,1.3-3,3
			C687.6,417.9,688.9,419.5,690.6,419.3L690.6,419.3z"/>
	</g>
</g>
<g>
	<g>
		<path d="M150.6,658.5c4.2,0,8.3-0.1,12.5-0.1c1,0,2,0,3,0c0.4,0,0.8,0,1.2,0c0.8,0,0.2,0.1,0.1,0c0.2,0.3-0.6-0.5-0.4-0.6l0.1,1.2
			c0,1.2,0.1,2.3,0.1,3.5c0.3,8.3,0.4,16.5,0.4,24.8c0.1,16.5-0.3,33.1-1.1,49.6c-0.5,9.3-1.1,18.5-1.8,27.7c-0.1,1.6,1.5,3,3,3
			c1.7,0,2.9-1.4,3-3c1.4-17.2,2.3-34.5,2.7-51.8s0.3-34.6-0.3-51.9c-0.1-2.2,0.1-4.8-1.4-6.6c-1.5-1.9-3.9-2-6.2-2
			c-5,0-10,0.1-14.9,0.1C146.7,652.5,146.7,658.5,150.6,658.5L150.6,658.5z"/>
	</g>
</g>
<g>
	<g>
		<path d="M165,766.9c-0.1,7.2-0.2,14.3-0.2,21.5c1-1,2-2,3-3c-23-1.3-46-0.8-68.9,1.4c-6.6,0.6-13.3,1.5-19.9,2.4
			c-1.6,0.2-2.5,2.3-2.1,3.7c0.5,1.7,2.1,2.3,3.7,2.1c22.5-3.1,45.3-4.5,68-4.3c6.4,0.1,12.8,0.3,19.2,0.7c1.6,0.1,3-1.4,3-3
			c0.1-7.2,0.2-14.3,0.2-21.5C171.1,763,165.1,763,165,766.9L165,766.9z"/>
	</g>
</g>
<g>
	<g>
		<path d="M97.6,669.4c0,19.5,0,39,0,58.4s0,39,0,58.4c0,11,0,22,0,33c0,3.9,6,3.9,6,0c0-19.5,0-39,0-58.4c0-19.5,0-39,0-58.4
			c0-11,0-22,0-33C103.6,665.5,97.6,665.5,97.6,669.4L97.6,669.4z"/>
	</g>
</g>
<g>
	<g>
		<path d="M127.8,661.2c0,20.2,0,40.4,0,60.6c0,5.7,0,11.5,0,17.2c0,3.9,6,3.9,6,0c0-20.2,0-40.4,0-60.6c0-5.7,0-11.5,0-17.2
			C133.8,657.4,127.8,657.4,127.8,661.2L127.8,661.2z"/>
	</g>
</g>
<g>
	<g>
		<path d="M155.7,662.4c0,19.9,0,39.8,0,59.7c0,5.6,0,11.3,0,16.9c0,3.9,6,3.9,6,0c0-19.9,0-39.8,0-59.7c0-5.6,0-11.3,0-16.9
			C161.7,658.5,155.7,658.5,155.7,662.4L155.7,662.4z"/>
	</g>
</g>
<g>
	<g>
		<path d="M162.2,680.3c-28,0-56.1,0-84.1,0c-8,0-15.9,0-23.9,0c-3.9,0-3.9,6,0,6c28,0,56.1,0,84.1,0c8,0,15.9,0,23.9,0
			C166,686.3,166,680.3,162.2,680.3L162.2,680.3z"/>
	</g>
</g>
<g>
	<g>
		<path d="M83.2,737.6c21.9-1.7,43.9-0.9,65.5,2.8c6.2,1,12.3,2.3,18.4,3.8c3.8,0.9,5.4-4.9,1.6-5.8c-21.8-5.2-44.3-7.8-66.8-7.6
			c-6.3,0.1-12.5,0.3-18.8,0.8c-1.6,0.1-3,1.3-3,3C80.2,736.2,81.6,737.8,83.2,737.6L83.2,737.6z"/>
	</g>
</g>
<g>
	<g>
		<path d="M654.5,1014.8c7,0,14.1,0,21.1,0c1.6,0,3-1.4,3-3s-1.4-3-3-3c-7,0-14.1,0-21.1,0c-1.6,0-3,1.4-3,3
			S652.9,1014.8,654.5,1014.8L654.5,1014.8z"/>
	</g>
</g>
</svg>
