<?xml version="1.0" encoding="utf-8"?>
<!-- Generator: Adobe Illustrator 27.5.0, SVG Export Plug-In . SVG Version: 6.00 Build 0)  -->
<svg version="1.1" id="Layer_1" xmlns="http://www.w3.org/2000/svg" xmlns:xlink="http://www.w3.org/1999/xlink" x="0px" y="0px"
	 width="843px" height="543px" viewBox="0 0 843 543" style="enable-background:new 0 0 843 543;" xml:space="preserve">
<style type="text/css">
	.st0{opacity:0.5;fill-rule:evenodd;clip-rule:evenodd;fill:#005DB9;enable-background:new    ;}
	.st1{fill:none;stroke:#005DB9;stroke-width:5;stroke-miterlimit:10;}
	.st2{opacity:0.5;fill:none;stroke:#005DB9;stroke-width:3;stroke-miterlimit:10;enable-background:new    ;}
</style>
<path class="st0" d="M110.7,196.7l72.5-21.4l21.6-21.2l45.5-16.3l54.2-19.5l79.6,37.6l15.2,24.6l40.7-13.2l33.9,47.9l58,31.5
	l57.6-24.1l26.3,50.4l35.8-8.7l100.6,34.1l60.4-8.6v147.6H152.2c-23.2,0-41.9-18.8-41.9-42L110.7,196.7z"/>
<g>
	<path class="st1" d="M812.6,437.4H151.8c-23,0-41.6-18.6-41.6-41.6V36.6"/>
</g>
<g>
	<path d="M32.3,331.1c1.1,0,2.2,0.2,3.2,0.6s1.8,1,2.5,1.7s1.3,1.5,1.7,2.5s0.6,2,0.6,3.1s-0.2,2.2-0.6,3.1c-0.4,1-1,1.8-1.8,2.6
		c-0.8,0.7-1.6,1.3-2.7,1.7s-2.1,0.6-3.3,0.6c-0.9,0-1.8-0.1-2.6-0.4c-0.8-0.3-1.6-0.7-2.2-1.1c-0.7-0.5-1.2-1.1-1.7-1.8
		c-0.5-0.7-0.9-1.4-1.1-2.2l3.7-1.2c0.3,0.9,0.8,1.6,1.5,2.1s1.5,0.8,2.4,0.8c0.6,0,1.2-0.1,1.7-0.3c0.5-0.2,1-0.5,1.3-0.9
		s0.7-0.8,0.9-1.3s0.3-1.1,0.3-1.7s-0.1-1.1-0.4-1.6c-0.2-0.5-0.6-1-1-1.3s-0.9-0.7-1.5-0.9c-0.6-0.2-1.2-0.3-1.9-0.3
		c-0.8,0-1.6,0.1-2.4,0.4s-1.5,0.6-2.2,1l3-12.1h9.8v3.7H33l-0.8,3.3h0.1V331.1z"/>
	<path d="M47.9,339.6v6.9h-4v-24.1h4v15.4l5.7-6.5h5l-6.4,7.1l7.1,8H54L47.9,339.6z"/>
	<path d="M83.1,346.6H79l-4.7-15.9l-4.7,15.9h-4.1l-6.8-23.4H63l4.6,16.3l4.8-16.3h3.8l4.8,16.3l4.6-16.3h4.1L83.1,346.6z"/>
</g>
<g>
	<path d="M48.5,448.5c-1.3,0-2.5-0.3-3.6-0.8s-1.9-1.3-2.7-2.3c-0.7-1-1.3-2.2-1.6-3.7s-0.6-3.1-0.6-4.9s0.2-3.4,0.6-4.9
		c0.4-1.4,0.9-2.7,1.6-3.7c0.7-1,1.6-1.8,2.7-2.3c1.1-0.5,2.3-0.8,3.6-0.8c1.4,0,2.6,0.3,3.6,0.8s1.9,1.3,2.6,2.3
		c0.7,1,1.3,2.2,1.6,3.7c0.4,1.4,0.6,3.1,0.6,4.9s-0.2,3.4-0.6,4.9c-0.4,1.4-0.9,2.7-1.6,3.7c-0.7,1-1.6,1.8-2.6,2.3
		S49.9,448.5,48.5,448.5z M48.5,444.6c1.4,0,2.5-0.7,3.2-2s1.1-3.3,1.1-5.8s-0.4-4.4-1.1-5.8s-1.8-2-3.2-2s-2.5,0.7-3.2,2
		s-1.1,3.3-1.1,5.8s0.4,4.4,1.1,5.8C46.1,443.9,47.1,444.6,48.5,444.6z"/>
	<path d="M83.1,448H79l-4.7-15.9L69.7,448h-4.1l-6.8-23.4h4.3l4.6,16.3l4.8-16.3h3.8l4.8,16.3l4.6-16.3h4.1L83.1,448z"/>
</g>
<line class="st2" x1="110.2" y1="337.5" x2="812.6" y2="337.5"/>
<g>
	<path d="M12,228.1v-3.8h7v22.4h-4.1V228H12V228.1z"/>
	<path d="M31.8,247.2c-1.3,0-2.5-0.3-3.6-0.8s-1.9-1.3-2.7-2.3c-0.7-1-1.3-2.2-1.6-3.7s-0.6-3.1-0.6-4.9s0.2-3.4,0.6-4.9
		s0.9-2.7,1.6-3.7s1.6-1.8,2.7-2.3s2.3-0.8,3.6-0.8c1.4,0,2.6,0.3,3.6,0.8s1.9,1.3,2.6,2.3c0.7,1,1.3,2.2,1.6,3.7
		c0.4,1.4,0.6,3.1,0.6,4.9s-0.2,3.4-0.6,4.9c-0.4,1.4-0.9,2.7-1.6,3.7c-0.7,1-1.6,1.8-2.6,2.3C34.3,246.9,33.1,247.2,31.8,247.2z
		 M31.8,243.3c1.4,0,2.5-0.7,3.2-2s1.1-3.3,1.1-5.8s-0.4-4.4-1.1-5.8c-0.7-1.3-1.8-2-3.2-2c-1.4,0-2.5,0.7-3.2,2s-1.1,3.3-1.1,5.8
		s0.4,4.4,1.1,5.8C29.3,242.7,30.4,243.3,31.8,243.3z"/>
	<path d="M47.9,239.8v6.9h-4v-24.1h4V238l5.7-6.5h5l-6.4,7.1l7.1,8H54L47.9,239.8z"/>
	<path d="M83.1,246.7H79l-4.7-15.9l-4.7,15.9h-4.1l-6.8-23.4H63l4.6,16.3l4.8-16.3h3.8l4.8,16.3l4.6-16.3h4.1L83.1,246.7z"/>
</g>
<line class="st2" x1="110.2" y1="237.7" x2="812.6" y2="237.7"/>
<g>
	<path d="M14.3,128.2v-3.8h7.1v22.4h-4.1v-18.7h-3C14.3,128.1,14.3,128.2,14.3,128.2z"/>
	<path d="M32.6,131.4c1.1,0,2.2,0.2,3.2,0.6c1,0.4,1.8,1,2.5,1.7s1.3,1.5,1.7,2.5s0.6,2,0.6,3.1s-0.2,2.2-0.6,3.1
		c-0.4,1-1,1.8-1.8,2.6c-0.8,0.7-1.6,1.3-2.7,1.7s-2.1,0.6-3.3,0.6c-0.9,0-1.8-0.1-2.6-0.4c-0.8-0.3-1.6-0.7-2.2-1.1
		c-0.7-0.5-1.2-1.1-1.7-1.8s-0.9-1.4-1.1-2.2l3.7-1.2c0.3,0.9,0.8,1.6,1.5,2.1s1.5,0.8,2.4,0.8c0.6,0,1.2-0.1,1.7-0.3s1-0.5,1.3-0.9
		s0.7-0.8,0.9-1.3s0.3-1.1,0.3-1.7c0-0.6-0.1-1.1-0.4-1.6c-0.2-0.5-0.6-1-1-1.3c-0.4-0.4-0.9-0.7-1.5-0.9s-1.2-0.3-1.9-0.3
		c-0.8,0-1.6,0.1-2.4,0.4c-0.8,0.2-1.5,0.6-2.2,1l3-12.1h9.8v3.7h-6.6l-0.8,3.3h0.2C32.6,131.5,32.6,131.4,32.6,131.4z"/>
	<path d="M48.1,139.9v6.9h-4v-24.1h4v15.4l5.7-6.5h5l-6.4,7.1l7.1,8h-5.3L48.1,139.9z"/>
	<path d="M83.4,146.9h-4.1L74.6,131L70,146.9h-4.1l-6.8-23.4h4.3l4.6,16.3l4.8-16.3h3.8l4.8,16.3l4.6-16.3h4.1L83.4,146.9z"/>
</g>
<line class="st2" x1="110.5" y1="137.8" x2="812.9" y2="137.8"/>
<g>
	<path d="M20.5,43.3V47H5.4l7.7-9.6c0.5-0.7,1-1.2,1.4-1.8c0.4-0.5,0.7-1,1-1.5s0.5-0.9,0.6-1.4s0.2-1,0.2-1.5c0-1-0.3-1.7-0.9-2.4
		C14.8,28.4,14,28,13,28c-0.9,0-1.7,0.3-2.3,0.9s-0.9,1.4-0.9,2.4v0.5H5.6v-0.5c0-1,0.2-1.9,0.6-2.8s0.9-1.6,1.6-2.3
		c0.7-0.7,1.5-1.2,2.4-1.5c0.9-0.4,1.9-0.6,3-0.6s2.1,0.2,3,0.6c0.9,0.4,1.7,0.9,2.4,1.5c0.7,0.6,1.2,1.3,1.6,2.2s0.6,1.7,0.6,2.6
		c0,0.8-0.1,1.6-0.3,2.3c-0.2,0.7-0.4,1.3-0.8,2s-0.8,1.3-1.4,2s-1.2,1.6-2,2.5l-2.8,3.5C13.5,43.3,20.5,43.3,20.5,43.3z"/>
	<path d="M32.3,47.5c-1.3,0-2.5-0.3-3.6-0.8s-1.9-1.3-2.7-2.3c-0.7-1-1.3-2.2-1.6-3.7s-0.6-3.1-0.6-4.9s0.2-3.4,0.6-4.9
		c0.4-1.4,0.9-2.7,1.6-3.7s1.6-1.8,2.7-2.3s2.3-0.8,3.6-0.8c1.4,0,2.6,0.3,3.6,0.8s1.9,1.3,2.6,2.3c0.7,1,1.3,2.2,1.6,3.7
		c0.4,1.4,0.6,3.1,0.6,4.9s-0.2,3.4-0.6,4.9c-0.4,1.4-0.9,2.7-1.6,3.7c-0.7,1-1.6,1.8-2.6,2.3C34.8,47.2,33.6,47.5,32.3,47.5z
		 M32.3,43.6c1.4,0,2.5-0.7,3.2-2s1.1-3.3,1.1-5.8s-0.4-4.4-1.1-5.8c-0.7-1.3-1.8-2-3.2-2c-1.4,0-2.5,0.7-3.2,2S28,33.3,28,35.8
		s0.4,4.4,1.1,5.8C29.8,43,30.9,43.6,32.3,43.6z"/>
	<path d="M48.4,40.1V47h-4V22.9h4v15.4l5.7-6.5h5L52.7,39l7.1,8h-5.3L48.4,40.1z"/>
	<path d="M83.6,47h-4.1l-4.7-15.9L70.2,47h-4.1l-6.8-23.4h4.3l4.6,16.3L73,23.6h3.8l4.8,16.3l4.6-16.3h4.1L83.6,47z"/>
</g>
<line class="st2" x1="110.7" y1="38" x2="813.1" y2="38"/>
<g>
	<path d="M126,504.3l2.6,2.6l-10.7,10.7l-1.3-12.2c-0.1-0.8-0.2-1.6-0.3-2.2s-0.2-1.2-0.3-1.8c-0.1-0.5-0.3-1-0.5-1.4
		s-0.5-0.8-0.9-1.2c-0.7-0.7-1.5-1-2.3-1c-0.9,0-1.7,0.3-2.3,1c-0.7,0.7-1,1.4-1,2.3s0.3,1.7,1,2.4l0.3,0.4l-3,3l-0.3-0.4
		c-0.7-0.7-1.2-1.5-1.6-2.4c-0.3-0.9-0.5-1.8-0.5-2.7s0.2-1.8,0.6-2.8c0.4-0.9,1-1.7,1.7-2.5c0.8-0.8,1.6-1.3,2.5-1.7
		s1.8-0.6,2.7-0.6c0.9,0,1.8,0.1,2.7,0.4s1.6,0.8,2.3,1.5c0.6,0.6,1.1,1.2,1.4,1.8s0.6,1.2,0.8,2c0.2,0.7,0.3,1.5,0.4,2.4
		s0.2,2,0.4,3.2l0.5,4.4L126,504.3z"/>
	<path d="M117.5,491.7l-2.7-2.7l5-5l15.9,15.9l-2.9,2.9l-13.2-13.2L117.5,491.7z"/>
	<path d="M144.1,486.4c0.5-0.5,0.8-1.2,0.7-1.9c0-0.3-0.1-0.6-0.3-1s-0.5-0.8-1.1-1.3l-11.6-11.6l3-3l11.9,11.9
		c0.8,0.8,1.4,1.6,1.8,2.4c0.3,0.8,0.5,1.5,0.5,2.3c0,0.9-0.1,1.7-0.5,2.6c-0.4,0.8-0.9,1.6-1.6,2.3c-0.6,0.6-1.2,1.1-1.9,1.4
		c-0.7,0.4-1.4,0.6-2.1,0.7c-0.7,0.1-1.4,0.1-2.1,0s-1.4-0.4-2-0.8l2.3-3.6c0.5,0.2,1,0.3,1.5,0.3
		C143.3,487,143.7,486.8,144.1,486.4z"/>
	<path d="M154.3,459.8l10.7,10.7l-2.6,2.6l-1-1c0,0.8-0.2,1.7-0.5,2.4c-0.3,0.8-0.8,1.5-1.5,2.2c-0.8,0.8-1.6,1.3-2.6,1.7
		c-1,0.4-1.9,0.5-2.9,0.5s-2-0.2-2.9-0.6c-1-0.4-1.8-1-2.6-1.8s-1.4-1.7-1.8-2.6c-0.4-1-0.6-1.9-0.6-2.9s0.2-2,0.5-2.9
		c0.4-1,0.9-1.8,1.7-2.6c0.7-0.7,1.4-1.2,2.2-1.5s1.6-0.5,2.4-0.5l-1-1L154.3,459.8z M157,473.8c0.4-0.4,0.7-0.9,0.9-1.4
		s0.3-1,0.3-1.5s-0.1-1-0.3-1.5s-0.5-1-1-1.4s-0.9-0.7-1.4-1c-0.5-0.2-1-0.3-1.5-0.4c-0.5,0-1,0.1-1.5,0.3c-0.5,0.2-1,0.5-1.4,0.9
		s-0.7,0.9-0.9,1.4s-0.3,1-0.3,1.5s0.1,1,0.4,1.5c0.2,0.5,0.5,1,1,1.4c0.4,0.4,0.9,0.7,1.4,1c0.5,0.2,1,0.3,1.5,0.4
		c0.5,0,1-0.1,1.5-0.3S156.6,474.2,157,473.8z"/>
	<path d="M159.9,454.3l0.9,0.9c0-0.7,0.1-1.4,0.4-2.1s0.7-1.3,1.3-1.9s1.3-1,2-1.3s1.5-0.4,2.3-0.4s1.6,0.2,2.4,0.5
		c0.8,0.3,1.6,0.9,2.5,1.8l6.2,6.2l-2.8,2.8l-5.9-5.9c-0.5-0.5-1-0.9-1.3-1c-0.4-0.2-0.8-0.3-1.1-0.3c-0.8,0-1.4,0.3-2,0.9
		s-0.9,1.3-0.9,2c0,0.4,0.1,0.8,0.3,1.2c0.2,0.4,0.5,0.8,1,1.3l5.9,5.9l-2.8,2.8L157.6,457L159.9,454.3z"/>
</g>
<g>
	<path d="M246.2,509.4l2.6,2.6l-10.7,10.7l-1.3-12.2c-0.1-0.8-0.2-1.6-0.3-2.2s-0.2-1.2-0.3-1.8c-0.1-0.5-0.3-1-0.5-1.4
		s-0.5-0.8-0.9-1.2c-0.7-0.7-1.5-1-2.3-1c-0.9,0-1.7,0.3-2.3,1c-0.7,0.7-1,1.4-1,2.3s0.3,1.7,1,2.4l0.4,0.3l-3,3l-0.4-0.4
		c-0.7-0.7-1.2-1.5-1.6-2.4c-0.3-0.9-0.5-1.8-0.5-2.7c0-0.9,0.2-1.8,0.6-2.8c0.4-0.9,1-1.7,1.7-2.5c0.8-0.8,1.6-1.3,2.5-1.7
		c0.9-0.4,1.8-0.6,2.7-0.6s1.8,0.1,2.7,0.4s1.6,0.8,2.3,1.5c0.6,0.6,1.1,1.2,1.4,1.8c0.3,0.6,0.6,1.2,0.8,2c0.2,0.7,0.3,1.5,0.4,2.4
		s0.2,2,0.4,3.2l0.5,4.5L246.2,509.4z"/>
	<path d="M251.4,492.9c1.1-0.2,2.2-0.2,3.2,0s1.9,0.8,2.7,1.5c0.7,0.7,1.2,1.5,1.5,2.3c0.3,0.9,0.4,1.7,0.4,2.7s-0.3,1.8-0.7,2.7
		c-0.4,0.9-1,1.7-1.7,2.5c-0.8,0.8-1.6,1.3-2.5,1.7c-0.9,0.4-1.8,0.6-2.7,0.7c-0.9,0-1.8-0.1-2.7-0.4s-1.6-0.8-2.3-1.5
		c-0.8-0.8-1.3-1.7-1.5-2.7s-0.2-2.1,0-3.2c-1,0.2-1.9,0.2-2.8-0.1c-0.9-0.3-1.7-0.7-2.4-1.4c-0.6-0.6-1.1-1.3-1.4-2.2
		c-0.3-0.8-0.4-1.6-0.4-2.5s0.3-1.7,0.6-2.6c0.4-0.8,0.9-1.6,1.6-2.3c0.7-0.7,1.5-1.3,2.3-1.6c0.8-0.4,1.7-0.6,2.6-0.6
		c0.9,0,1.7,0.1,2.5,0.4s1.5,0.8,2.2,1.4c0.7,0.7,1.2,1.5,1.4,2.4C251.6,491,251.6,492,251.4,492.9z M243,490.9
		c-0.6,0.6-0.9,1.3-0.9,2c0,0.8,0.2,1.4,0.8,2s1.2,0.8,2,0.8s1.4-0.3,2-0.9s0.9-1.2,0.9-2s-0.2-1.4-0.8-2s-1.2-0.8-2-0.8
		S243.6,490.3,243,490.9z M254.1,502c0.3-0.3,0.6-0.7,0.7-1.1c0.2-0.4,0.3-0.8,0.3-1.2c0-0.4-0.1-0.8-0.2-1.2
		c-0.2-0.4-0.4-0.8-0.7-1.1c-0.3-0.3-0.7-0.6-1.1-0.7c-0.4-0.2-0.8-0.2-1.2-0.2s-0.8,0.1-1.2,0.3c-0.4,0.2-0.8,0.4-1.1,0.7
		c-0.7,0.7-1,1.4-1.1,2.3c0,0.9,0.3,1.6,0.9,2.3c0.7,0.7,1.4,1,2.3,0.9C252.6,503,253.4,502.6,254.1,502z"/>
	<path d="M269.4,486.4c0.5-0.5,0.8-1.2,0.7-1.9c0-0.3-0.1-0.6-0.3-1c-0.2-0.4-0.5-0.8-1.1-1.3l-11.6-11.6l3-3l11.9,11.9
		c0.8,0.8,1.4,1.6,1.8,2.4c0.3,0.8,0.5,1.5,0.5,2.3c0,0.9-0.1,1.7-0.5,2.6c-0.4,0.8-0.9,1.6-1.6,2.3c-0.6,0.6-1.2,1.1-1.9,1.4
		c-0.7,0.3-1.4,0.6-2.1,0.7s-1.4,0.1-2.1,0s-1.4-0.4-2-0.8l2.3-3.6c0.5,0.2,1,0.3,1.5,0.3C268.5,487,269,486.8,269.4,486.4z"/>
	<path d="M279.5,459.8l10.7,10.7l-2.6,2.6l-1-1c0,0.8-0.2,1.7-0.5,2.4c-0.3,0.8-0.8,1.5-1.5,2.2c-0.8,0.8-1.6,1.3-2.6,1.7
		c-1,0.4-1.9,0.5-2.9,0.5s-2-0.2-2.9-0.6c-1-0.4-1.8-1-2.6-1.8c-0.8-0.8-1.4-1.7-1.8-2.6c-0.4-1-0.6-1.9-0.6-2.9s0.2-2,0.5-2.9
		c0.4-1,0.9-1.8,1.7-2.6c0.7-0.7,1.4-1.2,2.2-1.5s1.6-0.5,2.4-0.5l-1-1L279.5,459.8z M282.3,473.8c0.4-0.4,0.7-0.9,0.9-1.4
		c0.2-0.5,0.3-1,0.3-1.5s-0.1-1-0.3-1.5c-0.2-0.5-0.5-1-1-1.4c-0.4-0.4-0.9-0.7-1.4-1c-0.5-0.2-1-0.3-1.5-0.4c-0.5,0-1,0.1-1.5,0.3
		c-0.5,0.2-1,0.5-1.4,0.9s-0.7,0.9-0.9,1.4c-0.2,0.5-0.3,1-0.3,1.5s0.1,1,0.4,1.5c0.2,0.5,0.5,1,1,1.4c0.4,0.4,0.9,0.7,1.4,1
		s1,0.3,1.5,0.4c0.5,0,1-0.1,1.5-0.3C281.4,474.5,281.9,474.2,282.3,473.8z"/>
	<path d="M285.1,454.3l0.9,0.9c0-0.7,0.1-1.4,0.4-2.1s0.7-1.3,1.3-1.9c0.6-0.6,1.3-1,2-1.3s1.5-0.4,2.3-0.4s1.6,0.1,2.4,0.5
		c0.8,0.3,1.6,0.9,2.5,1.8l6.2,6.2l-2.8,2.8l-5.9-5.9c-0.5-0.5-1-0.9-1.3-1c-0.4-0.2-0.8-0.3-1.1-0.3c-0.8,0-1.4,0.3-2,0.9
		s-0.9,1.3-0.9,2c0,0.4,0.1,0.8,0.3,1.2c0.2,0.4,0.5,0.8,1,1.3l5.9,5.9l-2.8,2.8L282.8,457L285.1,454.3z"/>
</g>
<g>
	<path d="M368.9,485.4l9.7,9.7l2.1-2.1l2.5,2.5l-2.1,2.1l3.6,3.6l-2.8,2.8l-3.6-3.6l-7.5,7.5l-2.5-2.5l-2.8-16.7L368.9,485.4z
		 M369.9,492l1.7,10.2l4.3-4.3L369.9,492z"/>
	<path d="M386.5,466.5l2.7,2.7l-5.6,5.6l3.7,3.7l5.5-5.5l2.7,2.7l-5.5,5.5l7.4,7.4l-3,3l-16.5-16.5L386.5,466.5z"/>
	<path d="M409.9,465.5c0.2,0.2,0.3,0.3,0.4,0.5s0.3,0.3,0.4,0.5l-7.8,7.8c0.7,0.5,1.6,0.7,2.5,0.6s1.7-0.5,2.5-1.3
		c0.5-0.5,0.9-1.2,1.1-1.8c0.2-0.7,0.2-1.4,0-2.1l3.6-1c0.3,1.3,0.3,2.6,0,4c-0.3,1.3-1,2.5-2.1,3.6c-0.8,0.8-1.7,1.4-2.7,1.8
		s-2,0.6-3,0.6s-2-0.2-3-0.6s-1.9-1-2.7-1.8c-0.8-0.8-1.4-1.7-1.8-2.7s-0.7-1.9-0.7-2.9s0.1-1.9,0.5-2.9c0.4-0.9,0.9-1.8,1.7-2.6
		c0.8-0.8,1.6-1.3,2.6-1.7c0.9-0.4,1.9-0.5,2.9-0.5s2,0.3,2.9,0.7S409.1,464.7,409.9,465.5z M401.2,467.6c-0.7,0.7-1.1,1.5-1.1,2.3
		s0.2,1.6,0.7,2.3l5-5c-0.7-0.5-1.5-0.8-2.3-0.7C402.7,466.5,401.9,466.9,401.2,467.6z"/>
	<path d="M412.4,451.7c0.8-0.8,1.6-1.3,2.6-1.7c1-0.4,1.9-0.5,2.9-0.5s2,0.2,2.9,0.6c1,0.4,1.8,1,2.6,1.8c0.8,0.8,1.4,1.7,1.8,2.6
		c0.4,1,0.6,1.9,0.6,2.9s-0.2,2-0.5,2.9c-0.4,1-0.9,1.8-1.7,2.6c-0.7,0.7-1.4,1.2-2.2,1.5c-0.8,0.3-1.6,0.5-2.4,0.5l1,1l-2.6,2.6
		l-17.1-17.1l2.8-2.8l7.2,7.2c0.1-0.8,0.3-1.5,0.6-2.2S411.8,452.3,412.4,451.7z M420.7,460.7c0.4-0.4,0.7-0.9,0.9-1.4
		c0.2-0.5,0.3-1,0.3-1.5s-0.1-1-0.4-1.5c-0.2-0.5-0.5-1-1-1.4c-0.4-0.4-0.9-0.7-1.4-1c-0.5-0.2-1-0.3-1.5-0.4s-1,0.1-1.5,0.3
		c-0.5,0.2-1,0.5-1.4,0.9s-0.7,0.9-0.9,1.4c-0.2,0.5-0.3,1-0.3,1.5s0.1,1,0.4,1.5c0.2,0.5,0.5,1,1,1.4c0.4,0.4,0.9,0.7,1.4,1
		c0.5,0.2,1,0.3,1.5,0.4s1-0.1,1.5-0.3S420.3,461.1,420.7,460.7z"/>
</g>
<g>
	<path d="M485.2,499.8l-2.7-2.7l5-5l15.9,15.9l-2.9,2.9l-13.2-13.2L485.2,499.8z"/>
	<path d="M493,491.9l-2.7-2.7l5-5l15.9,15.9l-2.9,2.9l-13.2-13.2L493,491.9z"/>
	<path d="M511.8,466.5l2.7,2.7l-5.6,5.6l3.7,3.7l5.5-5.5l2.7,2.7l-5.5,5.5l7.4,7.4l-3,3l-16.5-16.5L511.8,466.5z"/>
	<path d="M535.1,465.5c0.2,0.2,0.3,0.3,0.4,0.5c0.1,0.2,0.3,0.3,0.4,0.5l-7.8,7.8c0.7,0.5,1.6,0.7,2.5,0.6s1.7-0.5,2.5-1.3
		c0.5-0.5,0.9-1.2,1.1-1.8s0.2-1.4,0-2.1l3.6-1c0.3,1.3,0.3,2.6,0,4s-1,2.5-2.1,3.6c-0.8,0.8-1.7,1.4-2.7,1.8s-2,0.6-3,0.6
		s-2-0.2-3-0.6s-1.9-1-2.7-1.8s-1.4-1.7-1.8-2.7s-0.7-1.9-0.7-2.9s0.1-1.9,0.5-2.9c0.4-0.9,0.9-1.8,1.7-2.6s1.6-1.3,2.6-1.7
		c0.9-0.4,1.9-0.5,2.9-0.5s2,0.3,2.9,0.7C533.5,464.1,534.3,464.7,535.1,465.5z M526.5,467.6c-0.7,0.7-1.1,1.5-1.1,2.3
		c-0.1,0.8,0.2,1.6,0.7,2.3l5-5c-0.7-0.5-1.5-0.8-2.3-0.7C527.9,466.5,527.2,466.9,526.5,467.6z"/>
	<path d="M537.6,451.7c0.8-0.8,1.6-1.3,2.6-1.7c1-0.4,1.9-0.5,2.9-0.5s2,0.2,2.9,0.6c1,0.4,1.8,1,2.6,1.8s1.4,1.7,1.8,2.6
		c0.4,1,0.6,1.9,0.6,2.9s-0.2,2-0.5,2.9c-0.4,1-0.9,1.8-1.7,2.6c-0.7,0.7-1.4,1.2-2.2,1.5s-1.6,0.5-2.4,0.5l1,1l-2.6,2.6l-17.1-17.1
		l2.8-2.8l7.2,7.2c0.1-0.8,0.3-1.5,0.6-2.2S537,452.3,537.6,451.7z M545.9,460.7c0.4-0.4,0.7-0.9,0.9-1.4s0.3-1,0.3-1.5
		s-0.1-1-0.4-1.5c-0.2-0.5-0.5-1-1-1.4c-0.4-0.4-0.9-0.7-1.4-1c-0.5-0.2-1-0.3-1.5-0.4c-0.5,0-1,0.1-1.5,0.3c-0.5,0.2-1,0.5-1.4,0.9
		s-0.7,0.9-0.9,1.4s-0.3,1-0.3,1.5s0.1,1,0.4,1.5c0.2,0.5,0.5,1,1,1.4c0.4,0.4,0.9,0.7,1.4,1c0.5,0.2,1,0.3,1.5,0.4
		c0.5,0,1-0.1,1.5-0.3S545.5,461.1,545.9,460.7z"/>
</g>
<g>
	<path d="M621.7,509.7l2.6,2.6L613.6,523l-1.3-12.2c-0.1-0.8-0.2-1.6-0.3-2.2s-0.2-1.2-0.3-1.8c-0.1-0.5-0.3-1-0.5-1.4
		s-0.5-0.8-0.9-1.2c-0.7-0.7-1.5-1-2.3-1s-1.7,0.3-2.3,1c-0.7,0.7-1,1.4-1,2.3s0.3,1.7,1,2.4l0.4,0.3l-3,3l-0.4-0.3
		c-0.7-0.7-1.2-1.5-1.6-2.4c-0.3-0.9-0.5-1.8-0.5-2.7c0-0.9,0.2-1.8,0.6-2.8c0.4-0.9,1-1.7,1.7-2.5c0.8-0.8,1.6-1.3,2.5-1.7
		c0.9-0.4,1.8-0.6,2.7-0.6s1.8,0.1,2.7,0.4s1.6,0.8,2.3,1.5c0.6,0.6,1.1,1.2,1.4,1.8c0.3,0.6,0.6,1.2,0.8,2s0.3,1.5,0.4,2.4
		c0.1,0.9,0.2,2,0.4,3.2l0.5,4.5L621.7,509.7z"/>
	<path d="M626.9,493.2c1.1-0.2,2.2-0.2,3.2,0s1.9,0.8,2.7,1.5c0.7,0.7,1.2,1.5,1.5,2.3c0.3,0.9,0.4,1.7,0.4,2.7
		c0,0.9-0.3,1.8-0.7,2.7c-0.4,0.9-1,1.7-1.7,2.5c-0.8,0.8-1.6,1.3-2.5,1.7c-0.9,0.4-1.8,0.6-2.7,0.7c-0.9,0-1.8-0.1-2.7-0.4
		s-1.6-0.8-2.3-1.5c-0.8-0.8-1.3-1.7-1.5-2.7s-0.2-2.1,0-3.2c-1,0.2-1.9,0.2-2.8-0.1c-0.9-0.3-1.7-0.7-2.4-1.4
		c-0.6-0.6-1.1-1.3-1.4-2.2c-0.3-0.8-0.4-1.6-0.4-2.5s0.3-1.7,0.6-2.6c0.4-0.8,0.9-1.6,1.6-2.3c0.7-0.7,1.5-1.3,2.3-1.6
		c0.8-0.4,1.7-0.6,2.6-0.6c0.9,0,1.7,0.1,2.5,0.4s1.5,0.8,2.2,1.4c0.7,0.7,1.2,1.5,1.4,2.4C627,491.3,627.1,492.3,626.9,493.2z
		 M618.5,491.2c-0.6,0.6-0.9,1.3-0.9,2c0,0.8,0.2,1.4,0.8,2s1.2,0.8,2,0.8s1.4-0.3,2-0.9s0.9-1.2,0.9-2s-0.2-1.4-0.8-2
		s-1.2-0.8-2-0.8C619.7,490.3,619.1,490.6,618.5,491.2z M629.5,502.2c0.3-0.3,0.6-0.7,0.7-1.1c0.2-0.4,0.3-0.8,0.3-1.2
		c0-0.4-0.1-0.8-0.2-1.2s-0.4-0.8-0.7-1.1c-0.3-0.3-0.7-0.6-1.1-0.7c-0.4-0.2-0.8-0.2-1.2-0.2s-0.8,0.1-1.2,0.3
		c-0.4,0.2-0.8,0.4-1.1,0.7c-0.7,0.7-1,1.4-1.1,2.3c0,0.9,0.3,1.6,0.9,2.3c0.7,0.7,1.4,1,2.3,0.9
		C628.1,503.3,628.9,502.9,629.5,502.2z"/>
	<path d="M637,466.5l2.7,2.7l-5.6,5.6l3.7,3.7l5.5-5.5l2.7,2.7l-5.5,5.5l7.4,7.4l-3,3l-16.5-16.5L637,466.5z"/>
	<path d="M660.4,465.5c0.2,0.2,0.3,0.3,0.4,0.5c0.1,0.2,0.3,0.3,0.4,0.5l-7.8,7.8c0.7,0.5,1.6,0.7,2.5,0.6s1.7-0.5,2.5-1.3
		c0.5-0.5,0.9-1.2,1.1-1.8c0.2-0.7,0.2-1.4,0-2.1l3.6-1c0.3,1.3,0.3,2.6,0,4c-0.3,1.3-1,2.5-2.1,3.6c-0.8,0.8-1.7,1.4-2.7,1.8
		s-2,0.6-3,0.6s-2-0.2-3-0.6s-1.9-1-2.7-1.8s-1.4-1.7-1.8-2.7c-0.4-1-0.7-1.9-0.7-2.9s0.1-1.9,0.5-2.9c0.4-0.9,0.9-1.8,1.7-2.6
		c0.8-0.8,1.6-1.3,2.6-1.7c0.9-0.4,1.9-0.5,2.9-0.5s2,0.3,2.9,0.7S659.6,464.7,660.4,465.5z M651.7,467.6c-0.7,0.7-1.1,1.5-1.1,2.3
		s0.2,1.6,0.7,2.3l5-5c-0.7-0.5-1.5-0.8-2.3-0.7C653.2,466.5,652.4,466.9,651.7,467.6z"/>
	<path d="M662.9,451.7c0.8-0.8,1.6-1.3,2.6-1.7c1-0.4,1.9-0.5,2.9-0.5s2,0.2,2.9,0.6c1,0.4,1.8,1,2.6,1.8s1.4,1.7,1.8,2.6
		c0.4,1,0.6,1.9,0.6,2.9s-0.2,2-0.5,2.9c-0.4,1-0.9,1.8-1.7,2.6c-0.7,0.7-1.4,1.2-2.2,1.5s-1.6,0.5-2.4,0.5l1,1l-2.6,2.6l-17.1-17.1
		l2.8-2.8l7.2,7.2c0.1-0.8,0.3-1.5,0.6-2.2S662.3,452.3,662.9,451.7z M671.2,460.7c0.4-0.4,0.7-0.9,0.9-1.4s0.3-1,0.3-1.5
		s-0.1-1-0.4-1.5c-0.2-0.5-0.5-1-1-1.4s-0.9-0.7-1.4-1c-0.5-0.2-1-0.3-1.5-0.4c-0.5,0-1,0.1-1.5,0.3c-0.5,0.2-1,0.5-1.4,0.9
		s-0.7,0.9-0.9,1.4s-0.3,1-0.3,1.5s0.1,1,0.4,1.5c0.2,0.5,0.5,1,1,1.4s0.9,0.7,1.4,1c0.5,0.2,1,0.3,1.5,0.3s1-0.1,1.5-0.3
		S670.8,461.1,671.2,460.7z"/>
</g>
<g>
	<path d="M746.9,509.7l2.6,2.6L738.8,523l-1.3-12.2c-0.1-0.8-0.2-1.6-0.3-2.2s-0.2-1.2-0.3-1.8c-0.1-0.5-0.3-1-0.5-1.4
		s-0.5-0.8-0.9-1.2c-0.7-0.7-1.5-1-2.3-1s-1.7,0.3-2.3,1c-0.7,0.7-1,1.4-1,2.3s0.3,1.7,1,2.4l0.4,0.3l-3,3l-0.4-0.3
		c-0.7-0.7-1.2-1.5-1.6-2.4c-0.3-0.9-0.5-1.8-0.5-2.7c0-0.9,0.2-1.8,0.6-2.8c0.4-0.9,1-1.7,1.7-2.5c0.8-0.8,1.6-1.3,2.5-1.7
		c0.9-0.4,1.8-0.6,2.7-0.6s1.8,0.1,2.7,0.4s1.6,0.8,2.3,1.5c0.6,0.6,1.1,1.2,1.4,1.8c0.3,0.6,0.6,1.2,0.8,2s0.3,1.5,0.4,2.4
		c0.1,0.9,0.2,2,0.4,3.2l0.5,4.5L746.9,509.7z"/>
	<path d="M752.1,493.2c1.1-0.2,2.2-0.2,3.2,0s1.9,0.8,2.7,1.5c0.7,0.7,1.2,1.5,1.5,2.3c0.3,0.9,0.4,1.7,0.4,2.7
		c0,0.9-0.3,1.8-0.7,2.7c-0.4,0.9-1,1.7-1.7,2.5c-0.8,0.8-1.6,1.3-2.5,1.7c-0.9,0.4-1.8,0.6-2.7,0.7c-0.9,0-1.8-0.1-2.7-0.4
		s-1.6-0.8-2.3-1.5c-0.8-0.8-1.3-1.7-1.5-2.7s-0.2-2.1,0-3.2c-1,0.2-1.9,0.2-2.8-0.1c-0.9-0.3-1.7-0.7-2.4-1.4
		c-0.6-0.6-1.1-1.3-1.4-2.2c-0.3-0.8-0.4-1.6-0.4-2.5s0.3-1.7,0.6-2.6c0.4-0.8,0.9-1.6,1.6-2.3c0.7-0.7,1.5-1.3,2.3-1.6
		c0.8-0.4,1.7-0.6,2.6-0.6c0.9,0,1.7,0.1,2.5,0.4s1.5,0.8,2.2,1.4c0.7,0.7,1.2,1.5,1.4,2.4C752.3,491.3,752.3,492.3,752.1,493.2z
		 M743.8,491.2c-0.6,0.6-0.9,1.3-0.9,2c0,0.8,0.2,1.4,0.8,2s1.2,0.8,2,0.8s1.4-0.3,2-0.9s0.9-1.2,0.9-2s-0.2-1.4-0.8-2
		s-1.2-0.8-2-0.8C745,490.3,744.3,490.6,743.8,491.2z M754.8,502.2c0.3-0.3,0.6-0.7,0.7-1.1c0.2-0.4,0.3-0.8,0.3-1.2
		c0-0.4-0.1-0.8-0.2-1.2s-0.4-0.8-0.7-1.1c-0.3-0.3-0.7-0.6-1.1-0.7c-0.4-0.2-0.8-0.2-1.2-0.2s-0.8,0.1-1.2,0.3
		c-0.4,0.2-0.8,0.4-1.1,0.7c-0.7,0.7-1,1.4-1.1,2.3c0,0.9,0.3,1.6,0.9,2.3c0.7,0.7,1.4,1,2.3,0.9
		C753.4,503.3,754.1,502.9,754.8,502.2z"/>
	<path d="M762.3,466.5l2.7,2.7l-5.6,5.6l3.7,3.7l5.5-5.5l2.7,2.7l-5.5,5.5l7.4,7.4l-3,3l-16.5-16.5L762.3,466.5z"/>
	<path d="M785.7,465.5c0.2,0.2,0.3,0.3,0.4,0.5c0.1,0.2,0.3,0.3,0.4,0.5l-7.8,7.8c0.7,0.5,1.6,0.7,2.5,0.6s1.7-0.5,2.5-1.3
		c0.5-0.5,0.9-1.2,1.1-1.8c0.2-0.7,0.2-1.4,0-2.1l3.6-1c0.3,1.3,0.3,2.6,0,4c-0.3,1.3-1,2.5-2.1,3.6c-0.8,0.8-1.7,1.4-2.7,1.8
		s-2,0.6-3,0.6s-2-0.2-3-0.6s-1.9-1-2.7-1.8s-1.4-1.7-1.8-2.7c-0.4-1-0.7-1.9-0.7-2.9s0.1-1.9,0.5-2.9c0.4-0.9,0.9-1.8,1.7-2.6
		c0.8-0.8,1.6-1.3,2.6-1.7c0.9-0.4,1.9-0.5,2.9-0.5s2,0.3,2.9,0.7S784.9,464.7,785.7,465.5z M777,467.6c-0.7,0.7-1.1,1.5-1.1,2.3
		s0.2,1.6,0.7,2.3l5-5c-0.7-0.5-1.5-0.8-2.3-0.7C778.5,466.5,777.7,466.9,777,467.6z"/>
	<path d="M788.1,451.7c0.8-0.8,1.6-1.3,2.6-1.7c1-0.4,1.9-0.5,2.9-0.5s2,0.2,2.9,0.6c1,0.4,1.8,1,2.6,1.8s1.4,1.7,1.8,2.6
		c0.4,1,0.6,1.9,0.6,2.9s-0.2,2-0.5,2.9c-0.4,1-0.9,1.8-1.7,2.6c-0.7,0.7-1.4,1.2-2.2,1.5s-1.6,0.5-2.4,0.5l1,1l-2.6,2.6L776,451.4
		l2.8-2.8l7.2,7.2c0.1-0.8,0.3-1.5,0.6-2.2S787.5,452.3,788.1,451.7z M796.4,460.7c0.4-0.4,0.7-0.9,0.9-1.4s0.3-1,0.3-1.5
		s-0.1-1-0.4-1.5c-0.2-0.5-0.5-1-1-1.4s-0.9-0.7-1.4-1c-0.5-0.2-1-0.3-1.5-0.4c-0.5,0-1,0.1-1.5,0.3c-0.5,0.2-1,0.5-1.4,0.9
		s-0.7,0.9-0.9,1.4s-0.3,1-0.3,1.5s0.1,1,0.4,1.5c0.2,0.5,0.5,1,1,1.4s0.9,0.7,1.4,1c0.5,0.2,1,0.3,1.5,0.3s1-0.1,1.5-0.3
		S796,461.1,796.4,460.7z"/>
</g>
</svg>
