<?xml version="1.0" encoding="utf-8"?>
<!-- Generator: Adobe Illustrator 27.5.0, SVG Export Plug-In . SVG Version: 6.00 Build 0)  -->
<svg version="1.1" id="Layer_1" xmlns="http://www.w3.org/2000/svg" xmlns:xlink="http://www.w3.org/1999/xlink" x="0px" y="0px"
	 width="75px" height="75px" viewBox="0 0 75 75" style="enable-background:new 0 0 75 75;" xml:space="preserve">
<style type="text/css">
	.st0{fill:none;stroke:#3B90E4;stroke-width:4;stroke-linecap:round;stroke-linejoin:round;stroke-miterlimit:10;}
</style>
<g>
	<path class="st0" d="M33.6,14.8c0,0-3.1,4.6-4,7.7v9.4l3.6-0.9L33.6,14.8z"/>
	<path class="st0" d="M58.6,21.3c-8.6-1.4-16.9-3.7-25-6.5L33.2,31c0,0,5.2,4.8,11.3,5.7S56,37.2,56,37.2L58.6,21.3z"/>
	<path class="st0" d="M16.9,47c0,0,2.7-13.2,16.3-16c0,0,12.7,11.8,29.1,3.8c0,0,0.3,3.5,0,5.1S61,44.7,60.7,47
		c-0.3,2.4-0.3,4.6-0.3,4.6c-6.2-0.7-13-0.1-20,1.1l1.9-8.6l1-4.6C43.2,39.5,27.3,41.7,16.9,47z"/>
	<path class="st0" d="M12.3,47.3l-3.9,9.6h9.8c0,0,7.7-2.3,15-3.3s7.1-0.9,7.1-0.9l2.8-13.2c0,0-8,0.7-16.4,3.8
		c-8.4,3-9.8,3.7-9.8,3.7L12.3,47.3z"/>
	<path class="st0" d="M14.2,56.9v3.3h49.9c0,0,2.4-10.4,2.5-12.4c0,0-0.3,4.3-8.7,4S34.7,53.2,28,54.6C21.4,56,20.1,56.9,14.2,56.9z
		"/>
</g>
</svg>
