<?xml version="1.0" encoding="utf-8"?>
<!-- Generator: Adobe Illustrator 27.5.0, SVG Export Plug-In . SVG Version: 6.00 Build 0)  -->
<svg version="1.1" id="Layer_1" xmlns="http://www.w3.org/2000/svg" xmlns:xlink="http://www.w3.org/1999/xlink" x="0px" y="0px"
	 width="75px" height="75px" viewBox="0 0 75 75" style="enable-background:new 0 0 75 75;" xml:space="preserve">
<style type="text/css">
	.st0{fill:none;stroke:#3B90E4;stroke-width:4;stroke-linecap:round;stroke-linejoin:round;stroke-miterlimit:10;}
</style>
<g>
	<path class="st0" d="M37.5,8.5c-10.5,0-18.9,7.7-18.9,18.2c0,9.8,7.2,14.8,8.3,24.3c0.1,1.3,1.2,2.2,2.5,2.2h16.3
		c1.3,0,2.4-1,2.5-2.2c1-9.5,8.3-14.5,8.3-24.3C56.4,16.2,48,8.5,37.5,8.5"/>
	<path class="st0" d="M45,59H30c-0.7,0-1.3,0.1-1.3,0.3v0.1c0,0.2,0.8,0.4,1.8,0.4h14c1,0,1.8-0.2,1.8-0.4v-0.1
		C46.3,59.1,45.7,59,45,59z"/>
	<path class="st0" d="M43.6,65.3H31.4c-0.6,0-1,0.1-1,0.3v0.1c0,0.5,1.6,0.9,3.7,0.9H41c2,0,3.7-0.4,3.7-0.9v-0.1
		C44.6,65.4,44.2,65.3,43.6,65.3z"/>
	<g>
		<path class="st0" d="M35.6,53.2c0-11.1-12.2-21-5.6-27.8c4.1-4.2,9.4-0.1,9.4,4.2c0,3.8-1,4.6-1.9,5.7"/>
		<path class="st0" d="M39.4,53.2c0-11.1,12.2-21,5.6-27.8c-4.1-4.2-9.4-0.1-9.4,4.2c0,3.8,1,4.6,1.9,5.7"/>
	</g>
</g>
</svg>
