<?xml version="1.0" encoding="utf-8"?>
<!-- Generator: Adobe Illustrator 27.5.0, SVG Export Plug-In . SVG Version: 6.00 Build 0)  -->
<svg version="1.1" id="Layer_1" xmlns="http://www.w3.org/2000/svg" xmlns:xlink="http://www.w3.org/1999/xlink" x="0px" y="0px"
	 width="339px" height="378.9px" viewBox="0 0 339 378.9" style="enable-background:new 0 0 339 378.9;" xml:space="preserve">
<style type="text/css">
	.st0{fill:#F46E53;stroke:#FFFFFF;stroke-width:3;stroke-miterlimit:10;}
	.st1{fill:#75A5FC;stroke:#FFFFFF;stroke-width:3;stroke-miterlimit:10;}
	.st2{enable-background:new    ;}
	.st3{fill:#F2F2F2;}
	.st4{fill:#F46E53;}
	.st5{fill:#75A5FC;}
</style>
<path class="st0" d="M51.1,282c26.7,29.6,65.3,48.2,108.3,48.2c80.5,0,145.8-65.3,145.8-145.8H159.4L51.1,282z"/>
<path class="st1" d="M305.2,184.4c0-80.5-65.3-145.8-145.8-145.8S13.5,103.8,13.5,184.4c0,37.6,14.2,71.8,37.5,97.7l108.3-97.7
	L305.2,184.4L305.2,184.4z"/>
<g class="st2">
	<path class="st3" d="M144,263.4l14.1-19.7v16.8h2.9v2.9h-2.9v3.9h-3v-3.9H144z M155.1,252.7l-5.6,7.8h5.6V252.7z"/>
	<path class="st3" d="M172.3,267.7c-1.3,0-2.4-0.3-3.4-0.8c-1-0.5-1.8-1.3-2.5-2.3c-0.7-1-1.2-2.2-1.6-3.7c-0.4-1.4-0.5-3-0.5-4.8
		s0.2-3.3,0.5-4.8c0.4-1.4,0.9-2.6,1.6-3.7c0.7-1,1.5-1.8,2.5-2.3c1-0.5,2.1-0.8,3.4-0.8c1.3,0,2.4,0.3,3.4,0.8
		c1,0.5,1.8,1.3,2.5,2.3c0.7,1,1.2,2.2,1.6,3.7c0.4,1.4,0.5,3,0.5,4.8s-0.2,3.3-0.5,4.8c-0.4,1.4-0.9,2.6-1.6,3.7
		c-0.7,1-1.5,1.8-2.5,2.3C174.7,267.5,173.5,267.7,172.3,267.7z M172.3,264.6c1.6,0,2.7-0.7,3.5-2.2s1.2-3.6,1.2-6.3
		s-0.4-4.8-1.2-6.3c-0.8-1.5-2-2.2-3.5-2.2c-1.6,0-2.7,0.7-3.5,2.2c-0.8,1.5-1.2,3.6-1.2,6.3s0.4,4.8,1.2,6.3
		C169.5,263.9,170.7,264.6,172.3,264.6z"/>
	<path class="st3" d="M188.2,257.3c-1.5,0-2.7-0.6-3.6-1.7s-1.3-2.8-1.3-5s0.4-3.9,1.3-5c0.8-1.2,2-1.7,3.6-1.7
		c1.5,0,2.7,0.6,3.5,1.8c0.8,1.2,1.2,2.8,1.2,5c0,2.2-0.4,3.9-1.2,5C190.9,256.7,189.7,257.3,188.2,257.3z M188.2,255
		c0.7,0,1.3-0.4,1.7-1.1c0.4-0.7,0.6-1.9,0.6-3.4s-0.2-2.6-0.6-3.4c-0.4-0.7-1-1.1-1.7-1.1c-0.8,0-1.4,0.4-1.8,1.1s-0.6,1.9-0.6,3.4
		c0,1.5,0.2,2.6,0.6,3.3C186.8,254.6,187.4,255,188.2,255z M202.4,243.2l2.1,1.2l-13.6,23.4l-2.1-1.2L202.4,243.2z M204.9,267.6
		c-1.6,0-2.7-0.6-3.6-1.7s-1.3-2.8-1.3-5s0.4-3.9,1.3-5s2-1.7,3.6-1.7c1.5,0,2.7,0.6,3.5,1.8c0.8,1.2,1.2,2.8,1.2,5
		c0,2.2-0.4,3.9-1.2,5C207.6,267.1,206.5,267.6,204.9,267.6z M204.9,265.4c0.7,0,1.3-0.4,1.7-1.1s0.6-1.9,0.6-3.4s-0.2-2.6-0.6-3.4
		c-0.4-0.7-1-1.1-1.7-1.1c-0.8,0-1.4,0.4-1.8,1.1c-0.4,0.7-0.6,1.9-0.6,3.4c0,1.5,0.2,2.6,0.6,3.3S204.2,265.4,204.9,265.4z"/>
</g>
<g class="st2">
	<path class="st3" d="M100.6,125.3c1.1,0,2.1,0.2,3.1,0.6c1,0.4,1.8,0.9,2.5,1.6c0.7,0.7,1.2,1.5,1.6,2.4s0.6,1.9,0.6,3
		c0,1.1-0.2,2-0.6,3c-0.4,0.9-1,1.7-1.6,2.4c-0.7,0.7-1.5,1.2-2.5,1.6c-1,0.4-2,0.6-3.1,0.6s-2.1-0.2-3.1-0.6
		c-1-0.4-1.8-0.9-2.5-1.6c-0.7-0.7-1.3-1.5-1.6-2.4c-0.4-0.9-0.6-1.9-0.6-3c0-0.8,0.1-1.5,0.3-2.2c0.2-0.7,0.5-1.3,0.9-2
		c0.4-0.7,0.8-1.4,1.3-2.1s1.1-1.5,1.7-2.3l5.6-7.7l2.6,1.8l-5.2,6.9H100.6z M100.6,137.3c0.6,0,1.2-0.1,1.7-0.3
		c0.5-0.2,1-0.5,1.4-0.9c0.4-0.4,0.7-0.9,0.9-1.4c0.2-0.5,0.3-1.1,0.3-1.8c0-0.6-0.1-1.2-0.3-1.8c-0.2-0.5-0.5-1-0.9-1.4
		c-0.4-0.4-0.9-0.7-1.4-0.9c-0.5-0.2-1.1-0.3-1.7-0.3c-0.6,0-1.2,0.1-1.7,0.3c-0.5,0.2-1,0.5-1.4,0.9c-0.4,0.4-0.7,0.9-0.9,1.4
		c-0.2,0.5-0.3,1.1-0.3,1.8c0,0.6,0.1,1.2,0.3,1.8c0.2,0.5,0.5,1,0.9,1.4c0.4,0.4,0.9,0.7,1.4,0.9C99.4,137.2,100,137.3,100.6,137.3
		z"/>
	<path class="st3" d="M119.5,140.4c-1.3,0-2.4-0.3-3.4-0.8c-1-0.5-1.8-1.3-2.5-2.3s-1.2-2.2-1.6-3.7c-0.4-1.4-0.5-3-0.5-4.8
		c0-1.8,0.2-3.3,0.5-4.8c0.4-1.4,0.9-2.6,1.6-3.7c0.7-1,1.5-1.8,2.5-2.3s2.1-0.8,3.4-0.8c1.3,0,2.4,0.3,3.4,0.8s1.8,1.3,2.5,2.3
		c0.7,1,1.2,2.2,1.6,3.7c0.4,1.4,0.5,3,0.5,4.8c0,1.8-0.2,3.3-0.5,4.8c-0.4,1.4-0.9,2.6-1.6,3.7c-0.7,1-1.5,1.8-2.5,2.3
		C121.9,140.1,120.7,140.4,119.5,140.4z M119.5,137.3c1.6,0,2.7-0.7,3.5-2.2c0.8-1.5,1.2-3.6,1.2-6.3c0-2.7-0.4-4.8-1.2-6.3
		c-0.8-1.5-2-2.2-3.5-2.2c-1.6,0-2.7,0.7-3.5,2.2c-0.8,1.5-1.2,3.6-1.2,6.3c0,2.7,0.4,4.8,1.2,6.3
		C116.7,136.6,117.9,137.3,119.5,137.3z"/>
	<path class="st3" d="M135.4,130c-1.5,0-2.7-0.6-3.6-1.7c-0.8-1.2-1.3-2.8-1.3-5s0.4-3.9,1.3-5c0.8-1.2,2-1.7,3.6-1.7
		c1.5,0,2.7,0.6,3.5,1.8c0.8,1.2,1.2,2.8,1.2,5c0,2.2-0.4,3.9-1.2,5C138.1,129.4,136.9,130,135.4,130z M135.4,127.7
		c0.7,0,1.3-0.4,1.7-1.1c0.4-0.7,0.6-1.9,0.6-3.4s-0.2-2.6-0.6-3.4s-1-1.1-1.7-1.1c-0.8,0-1.4,0.4-1.8,1.1c-0.4,0.7-0.6,1.9-0.6,3.4
		c0,1.5,0.2,2.6,0.6,3.3C134,127.3,134.6,127.7,135.4,127.7z M149.6,115.9l2.1,1.2L138,140.5l-2.1-1.2L149.6,115.9z M152.1,140.3
		c-1.6,0-2.7-0.6-3.6-1.7s-1.3-2.8-1.3-5s0.4-3.9,1.3-5c0.8-1.2,2-1.7,3.6-1.7c1.5,0,2.7,0.6,3.5,1.8c0.8,1.2,1.2,2.8,1.2,5
		c0,2.2-0.4,3.9-1.2,5S153.7,140.3,152.1,140.3z M152.1,138c0.7,0,1.3-0.4,1.7-1.1c0.4-0.7,0.6-1.9,0.6-3.4s-0.2-2.6-0.6-3.4
		c-0.4-0.7-1-1.1-1.7-1.1c-0.8,0-1.4,0.4-1.8,1.1c-0.4,0.7-0.6,1.9-0.6,3.4c0,1.5,0.2,2.6,0.6,3.3C150.8,137.6,151.4,138,152.1,138z
		"/>
</g>
<g class="st2">
	<path class="st4" d="M135.8,371.1c0.8,0,1.5-0.3,2-0.9c0.2-0.3,0.4-0.6,0.6-1.1c0.1-0.4,0.2-1,0.2-1.8v-16.9h3.3v17.2
		c0,1.1-0.1,2-0.4,2.8s-0.7,1.4-1.2,1.9c-0.5,0.6-1.2,1.1-2,1.4c-0.8,0.3-1.6,0.5-2.6,0.5c-0.7,0-1.4-0.1-2.1-0.3
		c-0.6-0.2-1.2-0.5-1.7-0.9c-0.5-0.4-1-0.8-1.3-1.4c-0.4-0.5-0.6-1.1-0.8-1.7l3.3-0.7c0.2,0.6,0.5,1,1,1.4
		C134.6,370.9,135.2,371.1,135.8,371.1z"/>
	<path class="st4" d="M153.3,374.2c-1.1,0-2.1-0.2-3.1-0.6c-1-0.4-1.8-1-2.5-1.7c-0.7-0.7-1.2-1.5-1.6-2.5s-0.6-2-0.6-3.1
		c0-1.1,0.2-2.1,0.6-3.1s1-1.8,1.6-2.5c0.7-0.7,1.5-1.3,2.5-1.7c1-0.4,2-0.6,3.1-0.6c1.1,0,2.1,0.2,3.1,0.6c1,0.4,1.8,1,2.5,1.7
		c0.7,0.7,1.2,1.5,1.6,2.5c0.4,1,0.6,2,0.6,3c0,1.1-0.2,2.1-0.6,3.1s-1,1.8-1.7,2.5c-0.7,0.7-1.5,1.3-2.5,1.7
		S154.4,374.2,153.3,374.2z M153.3,371.2c0.6,0,1.2-0.1,1.8-0.4c0.6-0.2,1-0.6,1.4-1c0.4-0.4,0.7-0.9,0.9-1.5
		c0.2-0.6,0.3-1.2,0.3-1.9c0-0.7-0.1-1.3-0.3-1.9c-0.2-0.6-0.5-1.1-0.9-1.5c-0.4-0.4-0.9-0.8-1.4-1c-0.6-0.2-1.2-0.4-1.8-0.4
		s-1.2,0.1-1.8,0.4c-0.6,0.2-1,0.6-1.4,1c-0.4,0.4-0.7,0.9-0.9,1.5s-0.3,1.2-0.3,1.9c0,0.7,0.1,1.3,0.3,1.9c0.2,0.6,0.5,1.1,0.9,1.5
		c0.4,0.4,0.9,0.8,1.4,1C152.1,371.1,152.7,371.2,153.3,371.2z"/>
	<path class="st4" d="M170.2,362.6c-0.1-0.4-0.3-0.6-0.6-0.9c-0.3-0.2-0.6-0.3-1-0.3c-0.4,0-0.8,0.1-1.1,0.4c-0.3,0.2-0.4,0.6-0.4,1
		c0,0.3,0.1,0.6,0.3,0.8c0.2,0.2,0.5,0.5,1,0.7l2.3,1c1,0.4,1.7,1,2.3,1.7c0.6,0.7,0.9,1.6,0.9,2.7c0,0.7-0.1,1.3-0.4,1.8
		c-0.3,0.6-0.6,1-1.1,1.5c-0.5,0.4-1,0.7-1.6,1s-1.3,0.4-2,0.4c-0.7,0-1.3-0.1-1.9-0.3c-0.6-0.2-1.1-0.5-1.6-0.8
		c-0.5-0.4-0.9-0.8-1.2-1.3c-0.3-0.5-0.5-1-0.6-1.6l3.1-0.5c0.1,0.5,0.4,0.9,0.8,1.2c0.4,0.3,0.9,0.5,1.4,0.5c0.6,0,1-0.2,1.4-0.5
		c0.4-0.3,0.5-0.7,0.5-1.2c0-0.4-0.1-0.7-0.3-1c-0.2-0.3-0.5-0.5-1-0.7l-2.2-1c-1-0.4-1.8-1-2.4-1.7c-0.6-0.7-0.9-1.5-0.9-2.6
		c0-0.6,0.1-1.1,0.4-1.6s0.6-1,1-1.3c0.4-0.4,0.9-0.7,1.5-0.9c0.6-0.2,1.2-0.3,1.9-0.3c1.1,0,2.1,0.3,2.9,0.8
		c0.8,0.5,1.4,1.3,1.7,2.1L170.2,362.6z"/>
	<path class="st4" d="M188.3,360.3c0.5,0.5,1,1.2,1.3,2c0.3,0.8,0.5,1.7,0.5,2.9v8.7h-3.2v-8.4c0-0.8-0.1-1.4-0.2-1.8
		c-0.2-0.4-0.4-0.8-0.7-1.1c-0.3-0.3-0.6-0.5-1-0.7s-0.8-0.2-1.3-0.2c-0.9,0-1.7,0.3-2.3,0.9c-0.3,0.3-0.5,0.6-0.7,1.1
		s-0.2,1-0.2,1.8v8.4h-3.2v-24.1h3.2v10.2c0.5-0.4,1-0.7,1.7-1s1.3-0.4,2-0.3c0.8,0,1.5,0.2,2.2,0.5
		C187.2,359.4,187.8,359.8,188.3,360.3z"/>
	<path class="st4" d="M194.9,350.2l3.2,1.1l-3.6,8.3l-2-0.7L194.9,350.2z"/>
	<path class="st4" d="M204.9,362.6c-0.1-0.4-0.3-0.6-0.6-0.9c-0.3-0.2-0.6-0.3-1-0.3c-0.4,0-0.8,0.1-1.1,0.4c-0.3,0.2-0.4,0.6-0.4,1
		c0,0.3,0.1,0.6,0.3,0.8c0.2,0.2,0.5,0.5,1,0.7l2.3,1c1,0.4,1.7,1,2.3,1.7c0.6,0.7,0.9,1.6,0.9,2.7c0,0.7-0.1,1.3-0.4,1.8
		c-0.3,0.6-0.6,1-1.1,1.5c-0.5,0.4-1,0.7-1.6,1s-1.3,0.4-2,0.4c-0.7,0-1.3-0.1-1.9-0.3c-0.6-0.2-1.1-0.5-1.6-0.8
		c-0.5-0.4-0.9-0.8-1.2-1.3c-0.3-0.5-0.5-1-0.6-1.6l3.1-0.5c0.1,0.5,0.4,0.9,0.8,1.2c0.4,0.3,0.9,0.5,1.4,0.5c0.6,0,1-0.2,1.4-0.5
		c0.4-0.3,0.5-0.7,0.5-1.2c0-0.4-0.1-0.7-0.3-1c-0.2-0.3-0.5-0.5-1-0.7l-2.2-1c-1-0.4-1.8-1-2.4-1.7c-0.6-0.7-0.9-1.5-0.9-2.6
		c0-0.6,0.1-1.1,0.4-1.6s0.6-1,1-1.3c0.4-0.4,0.9-0.7,1.5-0.9c0.6-0.2,1.2-0.3,1.9-0.3c1.1,0,2.1,0.3,2.9,0.8
		c0.8,0.5,1.4,1.3,1.7,2.1L204.9,362.6z"/>
	<path class="st4" d="M224.7,364.2h-1.3v9.7H220v-23.4h5.6c1.3,0,2.4,0.2,3.3,0.5c0.9,0.3,1.6,0.8,2.3,1.5c0.6,0.6,1.1,1.3,1.5,2.2
		c0.4,0.8,0.5,1.7,0.5,2.7c0,0.8-0.1,1.5-0.3,2.2c-0.2,0.7-0.6,1.3-1,1.9c-0.4,0.6-1,1.1-1.6,1.5c-0.6,0.4-1.3,0.7-2,0.9l6.6,10
		h-3.9L224.7,364.2z M225.3,361.1c0.9,0,1.5-0.1,2-0.3c0.5-0.2,0.9-0.4,1.3-0.8c0.7-0.7,1.1-1.6,1.1-2.7s-0.4-2-1.1-2.7
		c-0.4-0.3-0.8-0.6-1.3-0.8c-0.5-0.2-1.2-0.3-2-0.3h-2v7.6H225.3z"/>
	<path class="st4" d="M243.6,374.2c-1.1,0-2.1-0.2-3.1-0.6c-1-0.4-1.8-1-2.5-1.7c-0.7-0.7-1.2-1.5-1.6-2.5s-0.6-2-0.6-3.1
		c0-1.1,0.2-2.1,0.6-3.1s1-1.8,1.6-2.5c0.7-0.7,1.5-1.3,2.5-1.7c1-0.4,2-0.6,3.1-0.6c1.1,0,2.1,0.2,3.1,0.6c1,0.4,1.8,1,2.5,1.7
		c0.7,0.7,1.2,1.5,1.6,2.5c0.4,1,0.6,2,0.6,3c0,1.1-0.2,2.1-0.6,3.1s-1,1.8-1.7,2.5c-0.7,0.7-1.5,1.3-2.5,1.7
		S244.7,374.2,243.6,374.2z M243.6,371.2c0.6,0,1.2-0.1,1.8-0.4c0.6-0.2,1-0.6,1.4-1c0.4-0.4,0.7-0.9,0.9-1.5
		c0.2-0.6,0.3-1.2,0.3-1.9c0-0.7-0.1-1.3-0.3-1.9c-0.2-0.6-0.5-1.1-0.9-1.5c-0.4-0.4-0.9-0.8-1.4-1c-0.6-0.2-1.2-0.4-1.8-0.4
		s-1.2,0.1-1.8,0.4c-0.6,0.2-1,0.6-1.4,1c-0.4,0.4-0.7,0.9-0.9,1.5s-0.3,1.2-0.3,1.9c0,0.7,0.1,1.3,0.3,1.9c0.2,0.6,0.5,1.1,0.9,1.5
		c0.4,0.4,0.9,0.8,1.4,1C242.3,371.1,242.9,371.2,243.6,371.2z"/>
	<path class="st4" d="M261.7,374.2c-1.1,0-2.1-0.2-3.1-0.6c-1-0.4-1.8-1-2.5-1.7c-0.7-0.7-1.2-1.5-1.6-2.5c-0.4-0.9-0.6-2-0.6-3.1
		c0-1.1,0.2-2.1,0.6-3.1c0.4-1,1-1.8,1.6-2.5c0.7-0.7,1.5-1.3,2.5-1.7c1-0.4,2-0.6,3.1-0.6s2.1,0.2,3.1,0.6c1,0.4,1.8,1,2.5,1.7
		s1.2,1.5,1.6,2.5c0.4,1,0.6,2,0.6,3c0,1.1-0.2,2.1-0.6,3.1c-0.4,0.9-1,1.8-1.7,2.5c-0.7,0.7-1.5,1.3-2.5,1.7
		C263.8,374,262.8,374.2,261.7,374.2z M261.7,371.2c0.6,0,1.2-0.1,1.8-0.4c0.6-0.2,1-0.6,1.4-1c0.4-0.4,0.7-0.9,0.9-1.5
		c0.2-0.6,0.3-1.2,0.3-1.9c0-0.7-0.1-1.3-0.3-1.9c-0.2-0.6-0.5-1.1-0.9-1.5c-0.4-0.4-0.9-0.8-1.4-1c-0.6-0.2-1.2-0.4-1.8-0.4
		s-1.2,0.1-1.8,0.4c-0.6,0.2-1,0.6-1.4,1c-0.4,0.4-0.7,0.9-0.9,1.5c-0.2,0.6-0.3,1.2-0.3,1.9c0,0.7,0.1,1.3,0.3,1.9
		c0.2,0.6,0.5,1.1,0.9,1.5c0.4,0.4,0.9,0.8,1.4,1C260.4,371.1,261,371.2,261.7,371.2z"/>
	<path class="st4" d="M281.7,365c0-0.7-0.1-1.2-0.2-1.6c-0.1-0.4-0.3-0.7-0.6-0.9c-0.5-0.5-1.1-0.8-2-0.8c-0.8,0-1.5,0.3-2,0.8
		c-0.2,0.2-0.4,0.6-0.6,0.9c-0.1,0.4-0.2,0.9-0.2,1.6v8.9h-3.2V359h3v1.1c0.4-0.4,0.9-0.8,1.5-1c0.6-0.3,1.2-0.4,1.9-0.4
		c0.9,0,1.7,0.2,2.4,0.6c0.7,0.4,1.3,0.9,1.8,1.5c0.5-0.6,1.2-1.1,1.9-1.5s1.6-0.6,2.5-0.6c0.9,0,1.7,0.2,2.4,0.6
		c0.7,0.4,1.3,0.9,1.8,1.6c0.4,0.5,0.6,1,0.8,1.6c0.2,0.6,0.3,1.4,0.3,2.4v9.1h-3.2V365c0-0.7-0.1-1.2-0.2-1.6
		c-0.1-0.4-0.3-0.7-0.6-0.9c-0.5-0.5-1.1-0.8-2-0.8c-0.8,0-1.5,0.3-2,0.8c-0.2,0.2-0.4,0.6-0.6,0.9c-0.1,0.4-0.2,0.9-0.2,1.6v8.9
		h-3.2V365z"/>
</g>
<g class="st2">
	<path class="st5" d="M29.6,33.7c-1.7,0-3.3-0.3-4.8-0.9c-1.5-0.6-2.8-1.5-3.8-2.6c-1.1-1.1-1.9-2.4-2.5-3.8c-0.6-1.5-0.9-3-0.9-4.7
		c0-1.7,0.3-3.2,0.9-4.7c0.6-1.5,1.5-2.7,2.5-3.8c1.1-1.1,2.4-1.9,3.8-2.6c1.5-0.6,3.1-0.9,4.8-0.9s3.3,0.3,4.8,0.9
		c1.5,0.6,2.8,1.5,3.8,2.6c1.1,1.1,1.9,2.4,2.5,3.8c0.6,1.5,0.9,3,0.9,4.7c0,1.7-0.3,3.2-0.9,4.7c-0.6,1.5-1.5,2.7-2.5,3.8
		c-1.1,1.1-2.4,1.9-3.8,2.6C32.9,33.4,31.3,33.7,29.6,33.7z M29.6,30.6c1.2,0,2.4-0.2,3.4-0.7c1.1-0.5,2-1.1,2.7-1.9
		c0.8-0.8,1.4-1.8,1.8-2.8s0.7-2.3,0.7-3.5s-0.2-2.4-0.7-3.5s-1-2-1.8-2.8c-0.8-0.8-1.7-1.4-2.7-1.9c-1.1-0.5-2.2-0.7-3.4-0.7
		c-1.2,0-2.4,0.2-3.4,0.7c-1.1,0.5-2,1.1-2.7,1.9c-0.8,0.8-1.4,1.8-1.8,2.8S21,20.4,21,21.6s0.2,2.4,0.7,3.5s1,2,1.8,2.8
		s1.7,1.4,2.7,1.9C27.3,30.3,28.4,30.6,29.6,30.6z"/>
	<path class="st5" d="M46.7,21.3H44v-2.9h2.7v-5.8h3.2v5.8H53v2.9h-3.1v12h-3.2V21.3z"/>
	<path class="st5" d="M66.9,19.8c0.5,0.5,1,1.2,1.3,2c0.3,0.8,0.5,1.7,0.5,2.9v8.7h-3.2v-8.4c0-0.8-0.1-1.4-0.2-1.8
		c-0.2-0.4-0.4-0.8-0.7-1.1c-0.3-0.3-0.6-0.5-1-0.7s-0.8-0.2-1.3-0.2c-0.9,0-1.7,0.3-2.3,0.9c-0.3,0.3-0.5,0.6-0.7,1.1
		c-0.2,0.4-0.2,1-0.2,1.8v8.4H56V9.2h3.2v10.2c0.5-0.4,1-0.7,1.7-1c0.6-0.2,1.3-0.4,2-0.3c0.8,0,1.5,0.2,2.2,0.5
		C65.8,18.8,66.4,19.2,66.9,19.8z"/>
	<path class="st5" d="M86.5,25.9c0,0.4,0,0.8-0.1,1.2H75.3c0.2,1.1,0.7,1.9,1.5,2.6c0.8,0.7,1.8,1,3,1c0.8,0,1.6-0.2,2.3-0.6
		c0.7-0.4,1.2-0.9,1.6-1.6l2.5,1.6c-0.7,1.1-1.6,2-2.7,2.7c-1.1,0.7-2.4,1-3.8,1c-1.1,0-2.1-0.2-3-0.6c-0.9-0.4-1.7-1-2.4-1.7
		c-0.7-0.7-1.2-1.5-1.6-2.5C72.2,28,72,27,72,25.9c0-1.1,0.2-2.1,0.5-3.1c0.4-1,0.9-1.8,1.5-2.5c0.7-0.7,1.4-1.2,2.3-1.6
		s1.8-0.6,2.9-0.6c1,0,2,0.2,2.9,0.6c0.9,0.4,1.7,1,2.3,1.6c0.7,0.7,1.2,1.5,1.5,2.5C86.4,23.7,86.5,24.8,86.5,25.9z M79.3,21
		c-1.1,0-1.9,0.3-2.7,1c-0.7,0.7-1.2,1.5-1.3,2.5h7.9c-0.1-1-0.5-1.9-1.2-2.5C81.3,21.3,80.4,21,79.3,21z"/>
	<path class="st5" d="M97.5,18.2c0.3,0,0.7,0,1,0.1v3c-0.2,0-0.3,0-0.5,0c-0.2,0-0.4,0-0.6,0c-1.2,0-2.2,0.4-2.9,1.2
		c-0.4,0.4-0.6,0.8-0.8,1.3s-0.3,1.2-0.3,2.1v7.4h-3.2V18.4h3v1.9c0.1-0.1,0.1-0.2,0.2-0.3c0.1-0.1,0.1-0.1,0.2-0.2
		c0.5-0.5,1.1-0.9,1.7-1.2C96,18.4,96.7,18.2,97.5,18.2z"/>
</g>
</svg>
